# Blender v3.0.1 OBJ File: 'car1w_wheel.blend'
# www.blender.org
mtllib car1wheel.mtl
o Car.001_Car1_Cube.002
v 0.063283 0.325878 -0.000000
v -0.180188 0.325877 -0.000000
v -0.180188 0.319615 0.063575
v 0.063283 0.319616 0.063575
v -0.180188 0.301071 0.124708
v 0.063283 0.301071 0.124708
v -0.180188 0.270956 0.181048
v 0.063283 0.270956 0.181048
v -0.180188 0.230429 0.230430
v 0.063283 0.230430 0.230430
v -0.180188 0.181047 0.270958
v 0.063283 0.181048 0.270958
v -0.180188 0.124707 0.301071
v 0.063283 0.124708 0.301071
v -0.180188 0.063575 0.319616
v 0.063283 0.063576 0.319616
v -0.180188 -0.000001 0.325878
v 0.063283 -0.000000 0.325878
v -0.180188 -0.063576 0.319616
v 0.063283 -0.063575 0.319616
v -0.180188 -0.124708 0.301071
v 0.063283 -0.124707 0.301071
v -0.180188 -0.181047 0.270958
v 0.063283 -0.181047 0.270958
v -0.180188 -0.230431 0.230430
v 0.063283 -0.230430 0.230430
v -0.180188 -0.270958 0.181048
v 0.063283 -0.270957 0.181048
v -0.180188 -0.301072 0.124708
v 0.063283 -0.301071 0.124708
v -0.180188 -0.319616 0.063575
v 0.063283 -0.319616 0.063575
v -0.180188 -0.325877 -0.000000
v 0.063283 -0.325877 -0.000000
v -0.180188 -0.319616 -0.063576
v 0.063283 -0.319616 -0.063576
v -0.180188 -0.301072 -0.124708
v 0.063283 -0.301071 -0.124708
v -0.180188 -0.270957 -0.181048
v 0.063283 -0.270956 -0.181048
v -0.180188 -0.230430 -0.230430
v 0.063283 -0.230429 -0.230430
v -0.180188 -0.181047 -0.270956
v 0.063283 -0.181047 -0.270956
v -0.180188 -0.124708 -0.301072
v 0.063283 -0.124707 -0.301072
v -0.180188 -0.063576 -0.319616
v 0.063283 -0.063575 -0.319616
v -0.180188 0.000000 -0.325877
v 0.063283 0.000001 -0.325877
v -0.180188 0.063575 -0.319615
v 0.063283 0.063576 -0.319615
v -0.180188 0.124708 -0.301072
v 0.063283 0.124709 -0.301072
v -0.180188 0.181047 -0.270956
v 0.063283 0.181048 -0.270956
v -0.180188 0.230430 -0.230429
v 0.063283 0.230431 -0.230429
v -0.180188 0.270957 -0.181047
v 0.063283 0.270957 -0.181047
v -0.180188 0.301071 -0.124707
v 0.063283 0.301071 -0.124707
v -0.180188 0.319615 -0.063574
v 0.063283 0.319616 -0.063574
v 0.040886 0.153029 -0.000000
v 0.040886 0.150089 0.029854
v 0.040886 0.141380 0.058562
v 0.040886 0.127239 0.085018
v 0.040886 0.108208 0.108207
v 0.040886 0.085018 0.127239
v 0.040886 0.058562 0.141380
v 0.040886 0.029855 0.150089
v 0.040886 -0.000000 0.153028
v 0.040886 -0.029854 0.150089
v 0.040886 -0.058561 0.141380
v 0.040886 -0.085018 0.127239
v 0.040886 -0.108207 0.108207
v 0.040886 -0.127238 0.085018
v 0.040886 -0.141380 0.058562
v 0.040886 -0.150088 0.029854
v 0.040886 -0.153028 -0.000000
v 0.040886 -0.150088 -0.029854
v 0.040886 -0.141380 -0.058562
v 0.040886 -0.127238 -0.085019
v 0.040886 -0.108207 -0.108208
v 0.040886 -0.085018 -0.127239
v 0.040886 -0.058561 -0.141380
v 0.040886 -0.029854 -0.150088
v 0.040886 0.000001 -0.153029
v 0.040886 0.029855 -0.150088
v 0.040886 0.058562 -0.141380
v 0.040886 0.085019 -0.127239
v 0.040886 0.108208 -0.108207
v 0.040886 0.127239 -0.085018
v 0.040886 0.141380 -0.058562
v 0.040886 0.150089 -0.029854
v 0.063283 0.234529 0.046651
v 0.063283 0.239124 -0.000000
v 0.063283 0.220922 0.091509
v 0.063283 0.198825 0.132850
v 0.063283 0.169086 0.169086
v 0.063283 0.132850 0.198825
v 0.063283 0.091509 0.220922
v 0.063283 0.046651 0.234529
v 0.063283 -0.000000 0.239124
v 0.063283 -0.046650 0.234529
v 0.063283 -0.091508 0.220922
v 0.063283 -0.132850 0.198825
v 0.063283 -0.169086 0.169086
v 0.063283 -0.198824 0.132850
v 0.063283 -0.220921 0.091509
v 0.063283 -0.234529 0.046651
v 0.063283 -0.239123 -0.000000
v 0.063283 -0.234529 -0.046649
v 0.063283 -0.220921 -0.091509
v 0.063283 -0.198824 -0.132850
v 0.063283 -0.169086 -0.169086
v 0.063283 -0.132850 -0.198823
v 0.063283 -0.091508 -0.220921
v 0.063283 -0.046650 -0.234529
v 0.063283 0.000001 -0.239124
v 0.063283 0.046651 -0.234529
v 0.063283 0.091509 -0.220921
v 0.063283 0.132851 -0.198823
v 0.063283 0.169087 -0.169086
v 0.063283 0.198825 -0.132849
v 0.063283 0.220922 -0.091508
v 0.063283 0.234530 -0.046649
v 0.012741 0.219977 0.043756
v 0.012741 0.224287 -0.000000
v 0.012741 0.207213 0.085830
v 0.012741 0.186488 0.124607
v 0.012741 0.158595 0.158595
v 0.012741 0.124607 0.186488
v 0.012741 0.085831 0.207214
v 0.012741 0.043756 0.219977
v 0.012741 -0.000000 0.224286
v 0.012741 -0.043756 0.219977
v 0.012741 -0.085830 0.207214
v 0.012741 -0.124607 0.186488
v 0.012741 -0.158594 0.158595
v 0.012741 -0.186487 0.124607
v 0.012741 -0.207213 0.085830
v 0.012741 -0.219977 0.043756
v 0.012741 -0.224286 -0.000000
v 0.012741 -0.219977 -0.043756
v 0.012741 -0.207213 -0.085831
v 0.012741 -0.186487 -0.124607
v 0.012741 -0.158594 -0.158594
v 0.012741 -0.124606 -0.186488
v 0.012741 -0.085830 -0.207214
v 0.012741 -0.043756 -0.219977
v 0.012741 0.000001 -0.224286
v 0.012741 0.043757 -0.219977
v 0.012741 0.085831 -0.207214
v 0.012741 0.124608 -0.186488
v 0.012741 0.158595 -0.158594
v 0.012741 0.186488 -0.124606
v 0.012741 0.207213 -0.085830
v 0.012741 0.219977 -0.043755
vt 0.128023 0.485978
vt 0.128023 0.485978
vt 0.128023 0.485978
vt 0.128023 0.485978
vt 0.128023 0.485978
vt 0.128023 0.485978
vt 0.128023 0.485978
vt 0.128023 0.485978
vt 0.128023 0.485978
vt 0.128023 0.485978
vt 0.128023 0.485978
vt 0.128023 0.485978
vt 0.128023 0.485978
vt 0.128023 0.485978
vt 0.128023 0.485978
vt 0.128023 0.485978
vt 0.128023 0.485978
vt 0.128023 0.485978
vt 0.128023 0.485978
vt 0.128023 0.485978
vt 0.128023 0.485978
vt 0.128023 0.485978
vt 0.128023 0.485978
vt 0.128023 0.485978
vt 0.128023 0.485978
vt 0.128023 0.485978
vt 0.128023 0.485978
vt 0.128023 0.485978
vt 0.128023 0.485978
vt 0.128023 0.485978
vt 0.128023 0.485978
vt 0.128023 0.485978
vt 0.128023 0.485978
vt 0.128023 0.485978
vt 0.128023 0.485978
vt 0.128023 0.485978
vt 0.128023 0.485978
vt 0.128023 0.485978
vt 0.128023 0.485978
vt 0.128023 0.485978
vt 0.128023 0.485978
vt 0.128023 0.485978
vt 0.128023 0.485978
vt 0.128023 0.485978
vt 0.128023 0.485978
vt 0.128023 0.485978
vt 0.128023 0.485978
vt 0.128023 0.485978
vt 0.128023 0.485978
vt 0.128023 0.485978
vt 0.128023 0.485978
vt 0.128023 0.485978
vt 0.128023 0.485978
vt 0.128023 0.485978
vt 0.128023 0.485978
vt 0.128023 0.485978
vt 0.128023 0.485978
vt 0.128023 0.485978
vt 0.128023 0.485978
vt 0.128023 0.485978
vt 0.128023 0.485978
vt 0.128023 0.485978
vt 0.128023 0.485978
vt 0.128023 0.485978
vt 0.483143 0.488770
vt 0.483143 0.488770
vt 0.483143 0.488770
vt 0.128023 0.485978
vt 0.128023 0.485978
vt 0.128023 0.485978
vt 0.128023 0.485978
vt 0.128023 0.485978
vt 0.128023 0.485978
vt 0.128023 0.485978
vt 0.128023 0.485978
vt 0.128023 0.485978
vt 0.128023 0.485978
vt 0.128023 0.485978
vt 0.128023 0.485978
vt 0.128023 0.485978
vt 0.128023 0.485978
vt 0.128023 0.485978
vt 0.128023 0.485978
vt 0.128023 0.485978
vt 0.128023 0.485978
vt 0.128023 0.485978
vt 0.128023 0.485978
vt 0.128023 0.485978
vt 0.128023 0.485978
vt 0.128023 0.485978
vt 0.128023 0.485978
vt 0.128023 0.485978
vt 0.128023 0.485978
vt 0.128023 0.485978
vt 0.128023 0.485978
vt 0.128023 0.485978
vt 0.128023 0.485978
vt 0.128023 0.485978
vt 0.128023 0.485978
vt 0.173163 0.439936
vt 0.173163 0.439936
vt 0.173163 0.439936
vt 0.173163 0.439936
vt 0.173163 0.439936
vt 0.173163 0.439936
vt 0.173163 0.439936
vt 0.173163 0.439936
vt 0.173163 0.439936
vt 0.173163 0.439936
vt 0.173163 0.439936
vt 0.173163 0.439936
vt 0.173163 0.439936
vt 0.173163 0.439936
vt 0.173163 0.439936
vt 0.173163 0.439936
vt 0.173163 0.439936
vt 0.173163 0.439936
vt 0.173163 0.439936
vt 0.173163 0.439936
vt 0.173163 0.439936
vt 0.173163 0.439936
vt 0.173163 0.439936
vt 0.173163 0.439936
vt 0.173163 0.439936
vt 0.173163 0.439936
vt 0.173163 0.439936
vt 0.173163 0.439936
vt 0.173163 0.439936
vt 0.173163 0.439936
vt 0.173163 0.439936
vt 0.173163 0.439936
vt 0.173163 0.439936
vt 0.173163 0.439936
vt 0.173163 0.439936
vt 0.173163 0.439936
vt 0.173163 0.439936
vt 0.173163 0.439936
vt 0.173163 0.439936
vt 0.173163 0.439936
vt 0.173163 0.439936
vt 0.173163 0.439936
vt 0.173163 0.439936
vt 0.173163 0.439936
vt 0.173163 0.439936
vt 0.173163 0.439936
vt 0.173163 0.439936
vt 0.173163 0.439936
vt 0.173163 0.439936
vt 0.173163 0.439936
vt 0.173163 0.439936
vt 0.173163 0.439936
vt 0.173163 0.439936
vt 0.173163 0.439936
vt 0.173163 0.439936
vt 0.173163 0.439936
vt 0.173163 0.439936
vt 0.173163 0.439936
vt 0.173163 0.439936
vt 0.173163 0.439936
vt 0.173163 0.439936
vt 0.173163 0.439936
vt 0.173163 0.439936
vt 0.173163 0.439936
vt 0.483143 0.488770
vt 0.483143 0.488770
vt 0.483143 0.488770
vt 0.483143 0.488770
vt 0.483143 0.488770
vt 0.483143 0.488770
vt 0.483143 0.488770
vt 0.483143 0.488770
vt 0.483143 0.488770
vt 0.483143 0.488770
vt 0.483143 0.488770
vt 0.483143 0.488770
vt 0.483143 0.488770
vt 0.483143 0.488770
vt 0.483143 0.488770
vt 0.483143 0.488770
vt 0.483143 0.488770
vt 0.483143 0.488770
vt 0.483143 0.488770
vt 0.483143 0.488770
vt 0.483143 0.488770
vt 0.483143 0.488770
vt 0.483143 0.488770
vt 0.483143 0.488770
vt 0.483143 0.488770
vt 0.483143 0.488770
vt 0.483143 0.488770
vt 0.483143 0.488770
vt 0.483143 0.488770
vt 0.483143 0.488770
vt 0.483143 0.488770
vt 0.483143 0.488770
vt 0.483143 0.488770
vt 0.483143 0.488770
vt 0.483143 0.488770
vt 0.483143 0.488770
vt 0.483143 0.488770
vt 0.483143 0.488770
vt 0.483143 0.488770
vt 0.483143 0.488770
vt 0.483143 0.488770
vt 0.483143 0.488770
vt 0.483143 0.488770
vt 0.483143 0.488770
vt 0.483143 0.488770
vt 0.483143 0.488770
vt 0.483143 0.488770
vt 0.483143 0.488770
vt 0.483143 0.488770
vt 0.483143 0.488770
vt 0.483143 0.488770
vt 0.483143 0.488770
vt 0.483143 0.488770
vt 0.483143 0.488770
vt 0.483143 0.488770
vt 0.483143 0.488770
vt 0.483143 0.488770
vt 0.483143 0.488770
vt 0.483143 0.488770
vt 0.483143 0.488770
vt 0.483143 0.488770
vn -0.0000 0.9952 0.0980
vn -0.0000 0.9569 0.2903
vn -0.0000 0.8819 0.4714
vn -0.0000 0.7730 0.6344
vn -0.0000 0.6344 0.7730
vn -0.0000 0.4714 0.8819
vn -0.0000 0.2903 0.9569
vn -0.0000 0.0980 0.9952
vn 0.0000 -0.0980 0.9952
vn -0.0000 -0.2903 0.9569
vn 0.0000 -0.4714 0.8819
vn 0.0000 -0.6344 0.7730
vn 0.0000 -0.7730 0.6344
vn 0.0000 -0.8819 0.4714
vn 0.0000 -0.9569 0.2903
vn 0.0000 -0.9952 0.0980
vn 0.0000 -0.9952 -0.0980
vn 0.0000 -0.9569 -0.2903
vn 0.0000 -0.8819 -0.4714
vn 0.0000 -0.7730 -0.6344
vn 0.0000 -0.6344 -0.7730
vn 0.0000 -0.4714 -0.8819
vn 0.0000 -0.2903 -0.9569
vn 0.0000 -0.0980 -0.9952
vn -0.0000 0.0980 -0.9952
vn 0.0000 0.2903 -0.9569
vn -0.0000 0.4714 -0.8819
vn -0.0000 0.6344 -0.7730
vn -0.0000 0.7730 -0.6344
vn -0.0000 0.8819 -0.4714
vn -1.0000 -0.0000 0.0000
vn -0.0000 0.9569 -0.2903
vn -0.0000 0.9952 -0.0980
vn 1.0000 0.0000 -0.0000
vn 0.2804 -0.9553 -0.0941
vn 0.2804 -0.9185 -0.2786
vn 0.2804 -0.8465 -0.4525
vn 0.2804 -0.7420 -0.6089
vn 0.2804 -0.7420 -0.6090
vn 0.2804 -0.6089 -0.7420
vn 0.2804 -0.4525 -0.8465
vn 0.2804 -0.2786 -0.9185
vn 0.2804 -0.0941 -0.9553
vn 0.2804 0.0941 -0.9553
vn 0.2804 0.2786 -0.9185
vn 0.2804 0.4525 -0.8465
vn 0.2804 0.6089 -0.7420
vn 0.2804 0.7420 -0.6089
vn 0.2804 0.8465 -0.4525
vn 0.2804 0.9185 -0.2787
vn 0.2804 0.9553 -0.0941
vn 0.2804 0.9553 0.0941
vn 0.2804 0.9185 0.2786
vn 0.2804 0.8465 0.4525
vn 0.2804 0.7420 0.6089
vn 0.2804 0.6089 0.7420
vn 0.2804 0.4525 0.8465
vn 0.2804 0.2786 0.9185
vn 0.2804 0.0941 0.9553
vn 0.2804 -0.0941 0.9553
vn 0.2804 -0.2786 0.9185
vn 0.2804 -0.4525 0.8465
vn 0.2804 -0.6089 0.7420
vn 0.2804 -0.7420 0.6089
vn 0.2804 -0.8465 0.4525
vn 0.2804 -0.9185 0.2786
vn 0.2804 -0.9553 0.0941
vn 0.9295 0.3671 0.0362
vn 0.9295 0.3530 0.1071
vn 0.9295 0.3253 0.1739
vn 0.9295 0.2852 0.2340
vn 0.9295 0.2340 0.2852
vn 0.9295 0.1739 0.3253
vn 0.9295 0.1071 0.3530
vn 0.9295 0.0361 0.3671
vn 0.9295 -0.0361 0.3671
vn 0.9295 -0.0362 0.3671
vn 0.9295 -0.1071 0.3530
vn 0.9295 -0.1739 0.3253
vn 0.9295 -0.2340 0.2852
vn 0.9295 -0.2852 0.2340
vn 0.9295 -0.3253 0.1739
vn 0.9295 -0.3530 0.1071
vn 0.9295 -0.3671 0.0362
vn 0.9295 -0.3671 -0.0362
vn 0.9295 -0.3530 -0.1071
vn 0.9295 -0.3253 -0.1739
vn 0.9295 -0.2852 -0.2340
vn 0.9295 -0.2340 -0.2852
vn 0.9295 -0.1739 -0.3253
vn 0.9295 -0.1071 -0.3530
vn 0.9295 -0.0362 -0.3671
vn 0.9295 0.0362 -0.3671
vn 0.9295 0.1071 -0.3530
vn 0.9295 0.1739 -0.3253
vn 0.9295 0.2340 -0.2852
vn 0.9295 0.2852 -0.2340
vn 0.9295 0.3253 -0.1739
vn 0.9295 0.3530 -0.1071
vn 0.9295 0.3671 -0.0362
vn 0.2804 0.0941 -0.9552
vn 0.2804 -0.9552 0.0941
vn 0.9295 0.0362 0.3671
usemtl Car1
s 1
f 2/1/1 4/2/1 1/3/1
f 3/4/2 6/5/2 4/2/2
f 5/6/3 8/7/3 6/5/3
f 7/8/4 10/9/4 8/7/4
f 9/10/5 12/11/5 10/9/5
f 11/12/6 14/13/6 12/11/6
f 13/14/7 16/15/7 14/13/7
f 15/16/8 18/17/8 16/15/8
f 17/18/9 20/19/9 18/17/9
f 19/20/10 22/21/10 20/19/10
f 21/22/11 24/23/11 22/21/11
f 23/24/12 26/25/12 24/23/12
f 25/26/13 28/27/13 26/25/13
f 27/28/14 30/29/14 28/27/14
f 29/30/15 32/31/15 30/29/15
f 31/32/16 34/33/16 32/31/16
f 33/34/17 36/35/17 34/33/17
f 35/36/18 38/37/18 36/35/18
f 37/38/19 40/39/19 38/37/19
f 39/40/20 42/41/20 40/39/20
f 41/42/21 44/43/21 42/41/21
f 43/44/22 46/45/22 44/43/22
f 45/46/23 48/47/23 46/45/23
f 47/48/24 50/49/24 48/47/24
f 49/50/25 52/51/25 50/49/25
f 51/52/26 54/53/26 52/51/26
f 53/54/27 56/55/27 54/53/27
f 55/56/28 58/57/28 56/55/28
f 57/58/29 60/59/29 58/57/29
f 59/60/30 62/61/30 60/59/30
f 13/14/31 5/6/31 37/38/31
f 61/62/32 64/63/32 62/61/32
f 63/64/33 1/3/33 64/63/33
f 80/65/34 88/66/34 96/67/34
f 98/68/34 4/2/34 97/69/34
f 97/69/34 6/5/34 99/70/34
f 100/71/34 6/5/34 8/7/34
f 100/71/34 10/9/34 101/72/34
f 102/73/34 10/9/34 12/11/34
f 102/73/34 14/13/34 103/74/34
f 103/74/34 16/15/34 104/75/34
f 105/76/34 16/15/34 18/17/34
f 105/76/34 20/19/34 106/77/34
f 107/78/34 20/19/34 22/21/34
f 108/79/34 22/21/34 24/23/34
f 108/79/34 26/25/34 109/80/34
f 109/80/34 28/27/34 110/81/34
f 110/81/34 30/29/34 111/82/34
f 112/83/34 30/29/34 32/31/34
f 112/83/34 34/33/34 113/84/34
f 114/85/34 34/33/34 36/35/34
f 115/86/34 36/35/34 38/37/34
f 115/86/34 40/39/34 116/87/34
f 117/88/34 40/39/34 42/41/34
f 118/89/34 42/41/34 44/43/34
f 119/90/34 44/43/34 46/45/34
f 120/91/34 46/45/34 48/47/34
f 120/91/34 50/49/34 121/92/34
f 121/92/34 52/51/34 122/93/34
f 123/94/34 52/51/34 54/53/34
f 123/94/34 56/55/34 124/95/34
f 125/96/34 56/55/34 58/57/34
f 125/96/34 60/59/34 126/97/34
f 126/97/34 62/61/34 127/98/34
f 128/99/34 62/61/34 64/63/34
f 128/99/34 1/3/34 98/68/34
f 129/100/35 98/101/35 97/102/35
f 131/103/36 97/102/36 99/104/36
f 132/105/37 99/104/37 100/106/37
f 133/107/38 100/106/38 101/108/39
f 134/109/40 101/108/40 102/110/40
f 135/111/41 102/110/41 103/112/41
f 135/111/42 104/113/42 136/114/42
f 136/114/43 105/115/43 137/116/43
f 137/116/44 106/117/44 138/118/44
f 138/118/45 107/119/45 139/120/45
f 139/120/46 108/121/46 140/122/46
f 141/123/47 108/121/47 109/124/47
f 142/125/48 109/124/48 110/126/48
f 142/125/49 111/127/49 143/128/49
f 143/128/50 112/129/50 144/130/50
f 144/130/51 113/131/51 145/132/51
f 145/132/52 114/133/52 146/134/52
f 146/134/53 115/135/53 147/136/53
f 147/136/54 116/137/54 148/138/54
f 148/138/55 117/139/55 149/140/55
f 149/140/56 118/141/56 150/142/56
f 150/142/57 119/143/57 151/144/57
f 152/145/58 119/143/58 120/146/58
f 153/147/59 120/146/59 121/148/59
f 153/147/60 122/149/60 154/150/60
f 154/150/61 123/151/61 155/152/61
f 156/153/62 123/151/62 124/154/62
f 157/155/63 124/154/63 125/156/63
f 158/157/64 125/156/64 126/158/64
f 159/159/65 126/158/65 127/160/65
f 160/161/66 127/160/66 128/162/66
f 130/163/67 128/162/67 98/101/67
f 66/164/68 130/165/68 129/166/68
f 66/164/69 131/167/69 67/168/69
f 67/168/70 132/169/70 68/170/70
f 69/171/71 132/169/71 133/172/71
f 69/171/72 134/173/72 70/174/72
f 71/175/73 134/173/73 135/176/73
f 72/177/74 135/176/74 136/178/74
f 72/177/75 137/179/75 73/180/75
f 74/181/76 137/179/76 138/182/77
f 74/181/78 139/183/78 75/184/78
f 76/185/79 139/183/79 140/186/79
f 76/185/80 141/187/80 77/188/80
f 77/188/81 142/189/81 78/190/81
f 79/191/82 142/189/82 143/192/82
f 80/65/83 143/192/83 144/193/83
f 80/65/84 145/194/84 81/195/84
f 82/196/85 145/194/85 146/197/85
f 83/198/86 146/197/86 147/199/86
f 83/198/87 148/200/87 84/201/87
f 84/201/88 149/202/88 85/203/88
f 85/203/89 150/204/89 86/205/89
f 86/205/90 151/206/90 87/207/90
f 87/207/91 152/208/91 88/66/91
f 89/209/92 152/208/92 153/210/92
f 89/209/93 154/211/93 90/212/93
f 91/213/94 154/211/94 155/214/94
f 92/215/95 155/214/95 156/216/95
f 92/215/96 157/217/96 93/218/96
f 93/218/97 158/219/97 94/220/97
f 95/221/98 158/219/98 159/222/98
f 96/67/99 159/222/99 160/223/99
f 65/224/100 160/223/100 130/165/100
f 2/1/1 3/4/1 4/2/1
f 3/4/2 5/6/2 6/5/2
f 5/6/3 7/8/3 8/7/3
f 7/8/4 9/10/4 10/9/4
f 9/10/5 11/12/5 12/11/5
f 11/12/6 13/14/6 14/13/6
f 13/14/7 15/16/7 16/15/7
f 15/16/8 17/18/8 18/17/8
f 17/18/9 19/20/9 20/19/9
f 19/20/10 21/22/10 22/21/10
f 21/22/11 23/24/11 24/23/11
f 23/24/12 25/26/12 26/25/12
f 25/26/13 27/28/13 28/27/13
f 27/28/14 29/30/14 30/29/14
f 29/30/15 31/32/15 32/31/15
f 31/32/16 33/34/16 34/33/16
f 33/34/17 35/36/17 36/35/17
f 35/36/18 37/38/18 38/37/18
f 37/38/19 39/40/19 40/39/19
f 39/40/20 41/42/20 42/41/20
f 41/42/21 43/44/21 44/43/21
f 43/44/22 45/46/22 46/45/22
f 45/46/23 47/48/23 48/47/23
f 47/48/24 49/50/24 50/49/24
f 49/50/25 51/52/25 52/51/25
f 51/52/26 53/54/26 54/53/26
f 53/54/27 55/56/27 56/55/27
f 55/56/28 57/58/28 58/57/28
f 57/58/29 59/60/29 60/59/29
f 59/60/30 61/62/30 62/61/30
f 5/6/31 3/4/31 61/62/31
f 3/4/31 2/1/31 61/62/31
f 2/1/31 63/64/31 61/62/31
f 61/62/31 59/60/31 57/58/31
f 57/58/31 55/56/31 61/62/31
f 55/56/31 53/54/31 61/62/31
f 53/54/31 51/52/31 49/50/31
f 49/50/31 47/48/31 45/46/31
f 45/46/31 43/44/31 37/38/31
f 43/44/31 41/42/31 37/38/31
f 41/42/31 39/40/31 37/38/31
f 37/38/31 35/36/31 33/34/31
f 33/34/31 31/32/31 37/38/31
f 31/32/31 29/30/31 37/38/31
f 29/30/31 27/28/31 25/26/31
f 25/26/31 23/24/31 21/22/31
f 21/22/31 19/20/31 17/18/31
f 17/18/31 15/16/31 13/14/31
f 13/14/31 11/12/31 9/10/31
f 9/10/31 7/8/31 13/14/31
f 7/8/31 5/6/31 13/14/31
f 53/54/31 49/50/31 37/38/31
f 49/50/31 45/46/31 37/38/31
f 29/30/31 25/26/31 21/22/31
f 21/22/31 17/18/31 13/14/31
f 5/6/31 61/62/31 37/38/31
f 61/62/31 53/54/31 37/38/31
f 37/38/31 29/30/31 21/22/31
f 21/22/31 13/14/31 37/38/31
f 61/62/32 63/64/32 64/63/32
f 63/64/33 2/1/33 1/3/33
f 96/67/34 65/224/34 68/170/34
f 65/224/34 66/164/34 68/170/34
f 66/164/34 67/168/34 68/170/34
f 68/170/34 69/171/34 70/174/34
f 70/174/34 71/175/34 68/170/34
f 71/175/34 72/177/34 68/170/34
f 72/177/34 73/180/34 76/185/34
f 73/180/34 74/181/34 76/185/34
f 74/181/34 75/184/34 76/185/34
f 76/185/34 77/188/34 78/190/34
f 78/190/34 79/191/34 80/65/34
f 80/65/34 81/195/34 84/201/34
f 81/195/34 82/196/34 84/201/34
f 82/196/34 83/198/34 84/201/34
f 84/201/34 85/203/34 86/205/34
f 86/205/34 87/207/34 84/201/34
f 87/207/34 88/66/34 84/201/34
f 88/66/34 89/209/34 90/212/34
f 90/212/34 91/213/34 88/66/34
f 91/213/34 92/215/34 88/66/34
f 92/215/34 93/218/34 94/220/34
f 94/220/34 95/221/34 96/67/34
f 76/185/34 78/190/34 72/177/34
f 78/190/34 80/65/34 72/177/34
f 92/215/34 94/220/34 88/66/34
f 94/220/34 96/67/34 88/66/34
f 96/67/34 68/170/34 80/65/34
f 68/170/34 72/177/34 80/65/34
f 80/65/34 84/201/34 88/66/34
f 98/68/34 1/3/34 4/2/34
f 97/69/34 4/2/34 6/5/34
f 100/71/34 99/70/34 6/5/34
f 100/71/34 8/7/34 10/9/34
f 102/73/34 101/72/34 10/9/34
f 102/73/34 12/11/34 14/13/34
f 103/74/34 14/13/34 16/15/34
f 105/76/34 104/75/34 16/15/34
f 105/76/34 18/17/34 20/19/34
f 107/78/34 106/77/34 20/19/34
f 108/79/34 107/78/34 22/21/34
f 108/79/34 24/23/34 26/25/34
f 109/80/34 26/25/34 28/27/34
f 110/81/34 28/27/34 30/29/34
f 112/83/34 111/82/34 30/29/34
f 112/83/34 32/31/34 34/33/34
f 114/85/34 113/84/34 34/33/34
f 115/86/34 114/85/34 36/35/34
f 115/86/34 38/37/34 40/39/34
f 117/88/34 116/87/34 40/39/34
f 118/89/34 117/88/34 42/41/34
f 119/90/34 118/89/34 44/43/34
f 120/91/34 119/90/34 46/45/34
f 120/91/34 48/47/34 50/49/34
f 121/92/34 50/49/34 52/51/34
f 123/94/34 122/93/34 52/51/34
f 123/94/34 54/53/34 56/55/34
f 125/96/34 124/95/34 56/55/34
f 125/96/34 58/57/34 60/59/34
f 126/97/34 60/59/34 62/61/34
f 128/99/34 127/98/34 62/61/34
f 128/99/34 64/63/34 1/3/34
f 129/100/35 130/163/35 98/101/35
f 131/103/36 129/100/36 97/102/36
f 132/105/37 131/103/37 99/104/37
f 133/107/38 132/105/38 100/106/38
f 134/109/40 133/107/40 101/108/40
f 135/111/41 134/109/41 102/110/41
f 135/111/42 103/112/42 104/113/42
f 136/114/43 104/113/43 105/115/43
f 137/116/44 105/115/101 106/117/44
f 138/118/45 106/117/45 107/119/45
f 139/120/46 107/119/46 108/121/46
f 141/123/47 140/122/47 108/121/47
f 142/125/48 141/123/48 109/124/48
f 142/125/49 110/126/49 111/127/49
f 143/128/50 111/127/50 112/129/50
f 144/130/51 112/129/51 113/131/51
f 145/132/52 113/131/52 114/133/52
f 146/134/53 114/133/53 115/135/53
f 147/136/54 115/135/54 116/137/54
f 148/138/55 116/137/55 117/139/55
f 149/140/56 117/139/56 118/141/56
f 150/142/57 118/141/57 119/143/57
f 152/145/58 151/144/58 119/143/58
f 153/147/59 152/145/59 120/146/59
f 153/147/60 121/148/60 122/149/60
f 154/150/61 122/149/61 123/151/61
f 156/153/62 155/152/62 123/151/62
f 157/155/63 156/153/63 124/154/63
f 158/157/64 157/155/64 125/156/64
f 159/159/65 158/157/65 126/158/65
f 160/161/66 159/159/66 127/160/66
f 130/163/67 160/161/102 128/162/67
f 66/164/68 65/224/68 130/165/68
f 66/164/69 129/166/69 131/167/69
f 67/168/70 131/167/70 132/169/70
f 69/171/71 68/170/71 132/169/71
f 69/171/72 133/172/72 134/173/72
f 71/175/73 70/174/73 134/173/73
f 72/177/74 71/175/74 135/176/74
f 72/177/75 136/178/103 137/179/75
f 74/181/76 73/180/76 137/179/76
f 74/181/78 138/182/78 139/183/78
f 76/185/79 75/184/79 139/183/79
f 76/185/80 140/186/80 141/187/80
f 77/188/81 141/187/81 142/189/81
f 79/191/82 78/190/82 142/189/82
f 80/65/83 79/191/83 143/192/83
f 80/65/84 144/193/84 145/194/84
f 82/196/85 81/195/85 145/194/85
f 83/198/86 82/196/86 146/197/86
f 83/198/87 147/199/87 148/200/87
f 84/201/88 148/200/88 149/202/88
f 85/203/89 149/202/89 150/204/89
f 86/205/90 150/204/90 151/206/90
f 87/207/91 151/206/91 152/208/91
f 89/209/92 88/66/92 152/208/92
f 89/209/93 153/210/93 154/211/93
f 91/213/94 90/212/94 154/211/94
f 92/215/95 91/213/95 155/214/95
f 92/215/96 156/216/96 157/217/96
f 93/218/97 157/217/97 158/219/97
f 95/221/98 94/220/98 158/219/98
f 96/67/99 95/221/99 159/222/99
f 65/224/100 96/67/100 160/223/100
