# Blender v3.0.1 OBJ File: 'gamemapv2modelcollection.blend'
# www.blender.org
mtllib cpsMap_Woodfence.mtl
o Woodfence.007_Fence_1_Start_1_Mesh.006
v -0.089094 -1.277146 1.415282
v 0.089094 -1.277146 1.911116
v -0.089094 -1.277146 1.911116
v -0.089094 1.395673 1.911117
v 0.089094 1.395673 1.415283
v -0.089094 1.395673 1.415283
v 0.089094 -1.277146 1.415282
v 0.089094 1.395673 1.911117
v -0.059396 0.318666 -3.078481
v 0.059396 0.318895 1.415283
v -0.059396 0.318895 1.415283
v 0.059396 0.764367 1.415283
v -0.059396 0.764135 -3.078481
v -0.059396 0.764367 1.415283
v 0.059396 0.764135 -3.078481
v 0.059396 0.318666 -3.078481
v -0.059396 -0.823628 -3.078481
v 0.059396 -0.823399 1.415282
v -0.059396 -0.823399 1.415282
v 0.059396 -0.377928 1.415282
v -0.059396 -0.378159 -3.078481
v -0.059396 -0.377928 1.415282
v 0.059396 -0.378159 -3.078481
v 0.059396 -0.823628 -3.078481
vt 0.171896 0.828104
vt 0.171896 0.828104
vt 0.171896 0.828104
vt 0.171896 0.828104
vt 0.171896 0.828104
vt 0.171896 0.828104
vt 0.171896 0.828104
vt 0.171896 0.828104
vt 0.171896 0.828104
vt 0.171896 0.828104
vt 0.171896 0.828104
vt 0.171896 0.828104
vt 0.171896 0.828104
vt 0.171896 0.828104
vt 0.171896 0.828104
vt 0.171896 0.828104
vt 0.171896 0.828104
vt 0.171896 0.828104
vt 0.171896 0.828104
vt 0.171896 0.828104
vt 0.171896 0.828104
vt 0.171896 0.828104
vt 0.171896 0.828104
vt 0.171896 0.828104
vn 0.0000 -1.0000 -0.0000
vn 0.0000 1.0000 0.0000
vn 0.0000 -0.0000 1.0000
vn 1.0000 -0.0000 0.0000
vn 0.0000 0.0000 -1.0000
vn -1.0000 -0.0000 0.0000
vn 0.0000 -1.0000 0.0001
vn 0.0000 1.0000 -0.0001
usemtl woodfence
s 1
f 1/1/1 2/2/1 3/3/1
f 4/4/2 5/5/2 6/6/2
f 2/2/3 4/4/3 3/3/3
f 7/7/4 8/8/4 2/2/4
f 1/1/5 5/5/5 7/7/5
f 3/3/6 6/6/6 1/1/6
f 9/9/7 10/10/7 11/11/7
f 12/12/8 13/13/8 14/14/8
f 10/10/3 14/14/3 11/11/3
f 10/10/4 15/15/4 12/12/4
f 9/9/5 15/15/5 16/16/5
f 11/11/6 13/13/6 9/9/6
f 17/17/7 18/18/7 19/19/7
f 20/20/8 21/21/8 22/22/8
f 18/18/3 22/22/3 19/19/3
f 18/18/4 23/23/4 20/20/4
f 17/17/5 23/23/5 24/24/5
f 19/19/6 21/21/6 17/17/6
f 1/1/1 7/7/1 2/2/1
f 4/4/2 8/8/2 5/5/2
f 2/2/3 8/8/3 4/4/3
f 7/7/4 5/5/4 8/8/4
f 1/1/5 6/6/5 5/5/5
f 3/3/6 4/4/6 6/6/6
f 9/9/7 16/16/7 10/10/7
f 12/12/8 15/15/8 13/13/8
f 10/10/3 12/12/3 14/14/3
f 10/10/4 16/16/4 15/15/4
f 9/9/5 13/13/5 15/15/5
f 11/11/6 14/14/6 13/13/6
f 17/17/7 24/24/7 18/18/7
f 20/20/8 23/23/8 21/21/8
f 18/18/3 20/20/3 22/22/3
f 18/18/4 24/24/4 23/23/4
f 17/17/5 21/21/5 23/23/5
f 19/19/6 22/22/6 21/21/6
