# Blender v3.0.1 OBJ File: 'cpsMap.blend'
# www.blender.org
mtllib cpsMap_BGRoad.mtl
o Plane.001_Plane.001
v 30.000000 0.200001 -7.000000
v -30.000000 0.200002 -10.000000
v -30.000000 0.200001 -7.000000
v 30.000000 -0.099998 -10.000000
v 30.000000 0.200002 -10.000000
v -30.000000 -0.100002 10.040000
v 30.000000 0.199998 10.040000
v -30.000000 0.199998 10.040000
v -30.000000 0.199999 7.040000
v 30.000000 0.199999 7.040000
v -30.000000 -0.099998 -10.000000
v 30.000000 -0.100002 10.040000
vt 0.500000 0.875000
vt 0.500000 0.875000
vt 0.500000 0.875000
vt 0.500000 0.875000
vt 0.500000 0.875000
vt 0.500000 0.875000
vt 0.500000 0.875000
vt 0.500000 0.875000
vt 0.500000 0.875000
vt 0.125000 0.750000
vt 0.125000 0.750000
vt 0.125000 0.750000
vt 0.500000 0.875000
vt 0.500000 0.875000
vt 0.500000 0.875000
vt 0.125000 0.750000
vn 0.0000 1.0000 0.0000
vn 0.0000 0.0000 -1.0000
vn 0.0000 0.0000 1.0000
usemtl RoadMat
s 1
f 1/1/1 2/2/1 3/3/1
f 4/4/2 2/2/2 5/5/2
f 6/6/3 7/7/3 8/8/3
f 7/7/1 9/9/1 8/8/1
f 10/10/1 3/11/1 9/12/1
f 1/1/1 5/5/1 2/2/1
f 4/4/2 11/13/2 2/2/2
f 6/6/3 12/14/3 7/7/3
f 7/7/1 10/15/1 9/9/1
f 10/10/1 1/16/1 3/11/1
