# Blender v3.0.1 OBJ File: 'gamemapv2modelcollection.blend'
# www.blender.org
mtllib cpsMap_TreeStump.mtl
o Tree.024_Cylinder.001
v 0.000000 1.718412 -0.229645
v 0.252514 -0.665080 -0.347555
v 0.000000 -0.665080 -0.429602
v 0.134982 1.718412 -0.185786
v 0.408576 -0.665080 -0.132754
v 0.218405 1.718412 -0.070964
v 0.408576 -0.665080 0.132754
v 0.218405 1.718412 0.070964
v 0.252514 -0.665080 0.347555
v 0.134982 1.718412 0.185787
v 0.000000 -0.665080 0.429602
v 0.000000 1.718412 0.229645
v -0.252514 -0.665080 0.347555
v -0.218405 1.718412 0.070964
v -0.408576 -0.665080 0.132754
v -0.408576 -0.665080 -0.132754
v -0.134982 1.718412 0.185786
v -0.218405 1.718412 -0.070964
v -0.252514 -0.665080 -0.347555
v -0.134982 1.718412 -0.185786
v 0.556445 -1.800000 0.180800
v -0.556445 -1.800000 0.180800
v -0.343902 -1.800000 -0.473340
v 0.000000 -1.800000 -0.585081
v -0.556445 -1.800000 -0.180800
v -0.343902 -1.800000 0.473340
v 0.000000 -1.800000 0.585081
v 0.343902 -1.800000 0.473340
v 0.556445 -1.800000 -0.180800
v 0.343902 -1.800000 -0.473340
vt 0.500000 0.831575
vt 0.500000 0.831575
vt 0.500000 0.831575
vt 0.500000 0.831575
vt 0.500000 0.831575
vt 0.500000 0.831575
vt 0.500000 0.831575
vt 0.500000 0.831575
vt 0.500000 0.831575
vt 0.500000 0.831575
vt 0.500000 0.831575
vt 0.500000 0.831575
vt 0.500000 0.831575
vt 0.500000 0.831575
vt 0.500000 0.831575
vt 0.500000 0.831575
vt 0.500000 0.831575
vt 0.500000 0.831575
vt 0.500000 0.831575
vt 0.500000 0.831575
vt 0.500000 0.831575
vt 0.500000 0.831575
vt 0.500000 0.831575
vt 0.500000 0.831575
vt 0.500000 0.831575
vt 0.500000 0.831575
vt 0.500000 0.831575
vt 0.500000 0.831575
vt 0.500000 0.831575
vt 0.500000 0.831575
vn -0.0000 0.6747 -0.7381
vn 0.5842 0.1103 -0.8041
vn -0.0000 0.1103 -0.9939
vn 0.4338 0.6747 -0.5971
vn 0.9453 0.1103 -0.3071
vn 0.7020 0.6747 -0.2281
vn 0.9453 0.1103 0.3071
vn 0.7020 0.6747 0.2281
vn 0.5842 0.1103 0.8041
vn 0.4338 0.6747 0.5971
vn -0.0000 0.1103 0.9939
vn -0.0000 0.6747 0.7381
vn -0.5842 0.1103 0.8041
vn -0.7020 0.6747 0.2281
vn -0.9453 0.1103 0.3071
vn -0.9453 0.1103 -0.3071
vn -0.4338 0.6747 0.5971
vn -0.7020 0.6747 -0.2281
vn -0.5842 0.1103 -0.8041
vn -0.4338 0.6747 -0.5971
vn -0.0000 -1.0000 -0.0000
vn -0.5823 0.1357 -0.8015
vn 0.0000 0.1357 -0.9907
vn -0.9423 0.1357 -0.3062
vn -0.9423 0.1357 0.3062
vn -0.5823 0.1357 0.8015
vn 0.0000 0.1357 0.9907
vn 0.5823 0.1357 0.8015
vn 0.9423 0.1357 0.3062
vn 0.9423 0.1357 -0.3062
vn 0.5823 0.1357 -0.8015
usemtl Tree
s 1
f 1/1/1 2/2/2 3/3/3
f 4/4/4 5/5/5 2/2/2
f 6/6/6 7/7/7 5/5/5
f 8/8/8 9/9/9 7/7/7
f 10/10/10 11/11/11 9/9/9
f 12/12/12 13/13/13 11/11/11
f 13/13/13 14/14/14 15/15/15
f 14/14/14 16/16/16 15/15/15
f 17/17/17 10/10/10 6/6/6
f 18/18/18 19/19/19 16/16/16
f 20/20/20 3/3/3 19/19/19
f 21/21/21 22/22/21 23/23/21
f 23/23/22 3/3/3 24/24/23
f 16/16/16 23/23/22 25/25/24
f 15/15/15 25/25/24 22/22/25
f 13/13/13 22/22/25 26/26/26
f 11/11/11 26/26/26 27/27/27
f 9/9/9 27/27/27 28/28/28
f 7/7/7 28/28/28 21/21/29
f 5/5/5 21/21/29 29/29/30
f 2/2/2 29/29/30 30/30/31
f 3/3/3 30/30/31 24/24/23
f 1/1/1 4/4/4 2/2/2
f 4/4/4 6/6/6 5/5/5
f 6/6/6 8/8/8 7/7/7
f 8/8/8 10/10/10 9/9/9
f 10/10/10 12/12/12 11/11/11
f 12/12/12 17/17/17 13/13/13
f 13/13/13 17/17/17 14/14/14
f 14/14/14 18/18/18 16/16/16
f 6/6/6 4/4/4 1/1/1
f 1/1/1 20/20/20 6/6/6
f 20/20/20 18/18/18 6/6/6
f 18/18/18 14/14/14 17/17/17
f 17/17/17 12/12/12 10/10/10
f 10/10/10 8/8/8 6/6/6
f 18/18/18 17/17/17 6/6/6
f 18/18/18 20/20/20 19/19/19
f 20/20/20 1/1/1 3/3/3
f 23/23/21 24/24/21 30/30/21
f 30/30/21 29/29/21 21/21/21
f 21/21/21 28/28/21 22/22/21
f 28/28/21 27/27/21 22/22/21
f 27/27/21 26/26/21 22/22/21
f 22/22/21 25/25/21 23/23/21
f 23/23/21 30/30/21 21/21/21
f 23/23/22 19/19/19 3/3/3
f 16/16/16 19/19/19 23/23/22
f 15/15/15 16/16/16 25/25/24
f 13/13/13 15/15/15 22/22/25
f 11/11/11 13/13/13 26/26/26
f 9/9/9 11/11/11 27/27/27
f 7/7/7 9/9/9 28/28/28
f 5/5/5 7/7/7 21/21/29
f 2/2/2 5/5/5 29/29/30
f 3/3/3 2/2/2 30/30/31
