# Blender v3.0.1 OBJ File: 'gamemapv2modelcollection.blend'
# www.blender.org
mtllib cpsMap_Curb.mtl
o Curb.002_Cube.004
v -0.990000 0.089099 6.912889
v -0.721227 0.089099 7.425000
v -0.721227 0.089099 6.912889
v -0.990000 -0.089101 7.425000
v -0.721227 -0.089101 7.425000
v -0.990000 0.089101 -6.912889
v -0.990000 -0.089099 -7.425000
v -0.990000 -0.089099 -6.912889
v 0.990000 -0.089101 6.912889
v 0.721227 -0.089101 7.425000
v 0.721227 -0.089101 6.912889
v 0.990000 0.089099 6.912889
v 0.990000 -0.089101 7.425000
v 0.721227 0.089101 -7.425000
v 0.990000 -0.089099 -7.425000
v 0.721227 -0.089099 -7.425000
v -0.990000 0.089101 -7.425000
v -0.721227 -0.089099 -7.425000
v -0.721227 0.089101 -7.425000
v -0.721227 -0.089101 6.912889
v -0.990000 -0.089101 6.912889
v 0.990000 0.089099 7.425000
v 0.721227 0.089099 7.425000
v 0.721227 0.089099 6.912889
v 0.721227 0.089101 -6.912889
v -0.721227 0.089101 -6.912889
v 0.990000 0.089101 -6.912889
v 0.990000 0.089101 -7.425000
v -0.721227 -0.089099 -6.912889
v 0.721227 -0.089099 -6.912889
v 0.990000 -0.089099 -6.912889
v -0.990000 0.089099 7.425000
vt 0.158771 0.821542
vt 0.158771 0.821542
vt 0.158771 0.821542
vt 0.158771 0.821542
vt 0.158771 0.821542
vt 0.158771 0.821542
vt 0.158771 0.821542
vt 0.158771 0.821542
vt 0.158771 0.821542
vt 0.158771 0.821542
vt 0.158771 0.821542
vt 0.158771 0.821542
vt 0.158771 0.821542
vt 0.158771 0.821542
vt 0.158771 0.821542
vt 0.158771 0.821542
vt 0.158771 0.821542
vt 0.158771 0.821542
vt 0.158771 0.821542
vt 0.158771 0.821542
vt 0.158771 0.821542
vt 0.158771 0.821542
vt 0.158771 0.821542
vt 0.158771 0.821542
vt 0.158771 0.821542
vt 0.824823 0.805137
vt 0.824823 0.805137
vt 0.824823 0.805137
vt 0.158771 0.821542
vt 0.158771 0.821542
vt 0.158771 0.821542
vt 0.158771 0.821542
vt 0.158771 0.821542
vt 0.158771 0.821542
vt 0.158771 0.821542
vt 0.824823 0.805137
vn 0.0000 1.0000 0.0000
vn 0.0000 0.0000 1.0000
vn -1.0000 0.0000 0.0000
vn 0.0000 -1.0000 -0.0000
vn 1.0000 0.0000 0.0000
vn 0.0000 0.0000 -1.0000
usemtl curb
s 1
f 1/1/1 2/2/1 3/3/1
f 2/2/2 4/4/2 5/5/2
f 6/6/3 7/7/3 8/8/3
f 9/9/4 10/10/4 11/11/4
f 12/12/5 13/13/5 9/9/5
f 14/14/6 15/15/6 16/16/6
f 17/17/6 18/18/6 7/7/6
f 19/19/6 16/16/6 18/18/6
f 20/20/4 4/4/4 21/21/4
f 11/11/4 5/5/4 20/20/4
f 22/22/2 10/10/2 13/13/2
f 23/23/2 5/5/2 10/10/2
f 24/24/1 22/22/1 12/12/1
f 3/3/1 23/23/1 24/24/1
f 19/19/1 25/25/1 14/14/1
f 26/26/1 24/27/1 25/28/1
f 14/14/1 27/29/1 28/30/1
f 25/25/1 12/12/1 27/29/1
f 16/16/4 29/31/4 18/18/4
f 30/32/4 20/20/4 29/31/4
f 18/18/4 8/8/4 7/7/4
f 29/31/4 21/21/4 8/8/4
f 28/30/5 31/33/5 15/15/5
f 27/29/5 9/9/5 31/33/5
f 15/15/4 30/32/4 16/16/4
f 31/33/4 11/11/4 30/32/4
f 32/34/3 21/21/3 4/4/3
f 1/1/3 8/8/3 21/21/3
f 17/17/1 26/35/1 19/19/1
f 6/6/1 3/3/1 26/35/1
f 1/1/1 32/34/1 2/2/1
f 2/2/2 32/34/2 4/4/2
f 6/6/3 17/17/3 7/7/3
f 9/9/4 13/13/4 10/10/4
f 12/12/5 22/22/5 13/13/5
f 14/14/6 28/30/6 15/15/6
f 17/17/6 19/19/6 18/18/6
f 19/19/6 14/14/6 16/16/6
f 20/20/4 5/5/4 4/4/4
f 11/11/4 10/10/4 5/5/4
f 22/22/2 23/23/2 10/10/2
f 23/23/2 2/2/2 5/5/2
f 24/24/1 23/23/1 22/22/1
f 3/3/1 2/2/1 23/23/1
f 19/19/1 26/35/1 25/25/1
f 26/26/1 3/36/1 24/27/1
f 14/14/1 25/25/1 27/29/1
f 25/25/1 24/24/1 12/12/1
f 16/16/4 30/32/4 29/31/4
f 30/32/4 11/11/4 20/20/4
f 18/18/4 29/31/4 8/8/4
f 29/31/4 20/20/4 21/21/4
f 28/30/5 27/29/5 31/33/5
f 27/29/5 12/12/5 9/9/5
f 15/15/4 31/33/4 30/32/4
f 31/33/4 9/9/4 11/11/4
f 32/34/3 1/1/3 21/21/3
f 1/1/3 6/6/3 8/8/3
f 17/17/1 6/6/1 26/35/1
f 6/6/1 1/1/1 3/3/1
