# Blender v3.0.1 OBJ File: 'cpsMap.blend'
# www.blender.org
mtllib cpsMap_ParkingIndicator.mtl
o ParkingIndicator_Cube.024
v -1.720160 -1.034943 2.882617
v -1.720160 1.034943 2.882617
v -1.720160 -1.034943 -2.882617
v -1.720160 1.034943 -2.882617
v 1.720160 -1.034943 2.882617
v 1.720160 1.034943 2.882617
v 1.720160 -1.034943 -2.882617
v 1.720160 1.034943 -2.882617
vt 0.770728 0.032285
vt 0.221909 0.268603
vt 0.221909 0.032285
vt 0.770728 0.268603
vt 0.221909 0.504922
vt 0.770728 0.504922
vt 0.221909 0.741240
vt 0.770728 0.741240
vt 0.221909 0.977558
vt 0.375000 0.500000
vt 0.125000 0.750000
vt 0.125000 0.500000
vt 0.966549 0.620078
vt 0.966549 0.620078
vt 0.966549 0.620078
vt 0.770728 0.977558
vt 0.375000 0.750000
vt 0.966549 0.620078
vn -1.0000 0.0000 0.0000
vn 0.0000 0.0000 -1.0000
vn 1.0000 0.0000 0.0000
vn 0.0000 0.0000 1.0000
vn 0.0000 -1.0000 0.0000
vn 0.0000 1.0000 0.0000
usemtl Material
s off
f 2/1/1 3/2/1 1/3/1
f 4/4/2 7/5/2 3/2/2
f 8/6/3 5/7/3 7/5/3
f 6/8/4 1/9/4 5/7/4
f 7/10/5 1/11/5 3/12/5
f 4/13/6 6/14/6 8/15/6
f 2/1/1 4/4/1 3/2/1
f 4/4/2 8/6/2 7/5/2
f 8/6/3 6/8/3 5/7/3
f 6/8/4 2/16/4 1/9/4
f 7/10/5 5/17/5 1/11/5
f 4/13/6 2/18/6 6/14/6
