# Blender v3.0.1 OBJ File: 'cpsMap.blend'
# www.blender.org
mtllib cpsMap_Speedbump.mtl
o Cylinder_Cylinder.001
v 0.000000 0.999999 6.050000
v 0.406737 0.913544 3.630001
v 0.000000 0.999999 3.630001
v 0.406737 0.913544 6.050000
v 0.743145 0.669130 3.630000
v 0.743145 0.669130 6.050000
v 0.951057 0.309016 3.630000
v 0.951057 0.309016 6.050000
v 0.994522 -0.104530 3.630000
v 0.994522 -0.104530 6.050000
v 0.866025 -0.500001 3.630000
v 0.866025 -0.500001 6.050000
v 0.587785 -0.809018 3.630000
v 0.587785 -0.809018 6.050000
v 0.207912 -0.978149 3.630000
v 0.207912 -0.978149 6.050000
v -0.207912 -0.978149 3.630000
v -0.207912 -0.978149 6.050000
v -0.587785 -0.809018 3.630000
v -0.587785 -0.809018 6.050000
v -0.866025 -0.500001 3.630000
v -0.866025 -0.500001 6.050000
v -0.994522 -0.104529 3.630000
v -0.994522 -0.104529 6.050000
v -0.951056 0.309016 3.630000
v -0.951056 0.309016 6.050000
v -0.743145 0.669130 3.630000
v -0.743145 0.669130 6.050000
v -0.406736 0.913544 3.630001
v -0.406736 0.913544 6.050000
v -0.587785 -0.809016 -6.050000
v -0.994522 -0.104527 -6.050000
v -0.743145 0.669132 -6.050000
v -0.406736 0.913547 -3.630000
v 0.000000 1.000001 -6.050000
v -0.406736 0.913547 -6.050000
v -0.406736 0.913546 -1.210000
v 0.000000 1.000001 -3.630000
v -0.406736 0.913546 1.210000
v 0.000000 1.000000 -1.210000
v 0.000000 1.000000 1.210000
v -0.743145 0.669132 -3.630000
v -0.743145 0.669131 -1.210000
v -0.743145 0.669131 1.210000
v -0.951056 0.309018 -3.630000
v -0.951056 0.309018 -6.050000
v -0.951056 0.309017 -1.210000
v -0.951056 0.309017 1.210000
v -0.994522 -0.104527 -3.630000
v -0.994522 -0.104528 -1.210000
v -0.994522 -0.104528 1.210000
v -0.866025 -0.499999 -3.630000
v -0.866025 -0.499999 -6.050000
v -0.866025 -0.500000 -1.210000
v -0.866025 -0.500000 1.210000
v -0.587785 -0.809016 -3.630001
v -0.587785 -0.809017 -1.210000
v -0.587785 -0.809017 1.210000
v -0.207912 -0.978147 -3.630001
v -0.207912 -0.978147 -6.050000
v -0.207912 -0.978148 -1.210000
v -0.207912 -0.978148 1.210000
v 0.207912 -0.978147 -3.630001
v 0.207912 -0.978147 -6.050000
v 0.207912 -0.978148 -1.210000
v 0.207912 -0.978148 1.210000
v 0.587785 -0.809016 -3.630001
v 0.587785 -0.809016 -6.050000
v 0.587785 -0.809017 -1.210000
v 0.587785 -0.809017 1.210000
v 0.866025 -0.499999 -3.630000
v 0.866025 -0.499999 -6.050000
v 0.866025 -0.500000 -1.210000
v 0.866025 -0.500000 1.210000
v 0.994522 -0.104527 -3.630000
v 0.994522 -0.104527 -6.050000
v 0.994522 -0.104528 -1.210000
v 0.994522 -0.104529 1.210000
v 0.951057 0.309018 -3.630000
v 0.951057 0.309018 -6.050000
v 0.951057 0.309017 -1.210000
v 0.951057 0.309017 1.210000
v 0.743145 0.669132 -3.630000
v 0.743145 0.669132 -6.050000
v 0.743145 0.669131 -1.210000
v 0.743145 0.669131 1.210000
v 0.406737 0.913546 -3.630000
v 0.406737 0.913546 -6.050000
v 0.406737 0.913545 -1.210000
v 0.406737 0.913545 1.210000
vt 0.148622 0.805260
vt 0.148622 0.805260
vt 0.148622 0.805260
vt 0.148622 0.805260
vt 0.148622 0.805260
vt 0.148622 0.805260
vt 0.148622 0.805260
vt 0.148622 0.805260
vt 0.148622 0.805260
vt 0.148622 0.805260
vt 0.148622 0.805260
vt 0.148622 0.805260
vt 0.148622 0.805260
vt 0.148622 0.805260
vt 0.148622 0.805260
vt 0.148622 0.805260
vt 0.148622 0.805260
vt 0.148622 0.805260
vt 0.148622 0.805260
vt 0.148622 0.805260
vt 0.148622 0.805260
vt 0.148622 0.805260
vt 0.148622 0.805260
vt 0.148622 0.805260
vt 0.148622 0.805260
vt 0.148622 0.805260
vt 0.148622 0.805260
vt 0.148622 0.805260
vt 0.148622 0.805260
vt 0.148622 0.805260
vt 0.148622 0.805260
vt 0.148622 0.805260
vt 0.148622 0.805260
vt 0.148622 0.805260
vt 0.148622 0.805260
vt 0.148622 0.805260
vt 0.826575 0.801126
vt 0.826575 0.801126
vt 0.826575 0.801126
vt 0.148622 0.805260
vt 0.148622 0.805260
vt 0.148622 0.805260
vt 0.826575 0.801126
vt 0.826575 0.801126
vt 0.826575 0.801126
vt 0.148622 0.805260
vt 0.826575 0.801126
vt 0.826575 0.801126
vt 0.148622 0.805260
vt 0.148622 0.805260
vt 0.826575 0.801126
vt 0.826575 0.801126
vt 0.148622 0.805260
vt 0.148622 0.805260
vt 0.826575 0.801126
vt 0.826575 0.801126
vt 0.148622 0.805260
vt 0.148622 0.805260
vt 0.826575 0.801126
vt 0.826575 0.801126
vt 0.148622 0.805260
vt 0.826575 0.801126
vt 0.826575 0.801126
vt 0.148622 0.805260
vt 0.148622 0.805260
vt 0.826575 0.801126
vt 0.826575 0.801126
vt 0.148622 0.805260
vt 0.148622 0.805260
vt 0.826575 0.801126
vt 0.826575 0.801126
vt 0.148622 0.805260
vt 0.148622 0.805260
vt 0.826575 0.801126
vt 0.826575 0.801126
vt 0.148622 0.805260
vt 0.826575 0.801126
vt 0.826575 0.801126
vt 0.148622 0.805260
vt 0.148622 0.805260
vt 0.826575 0.801126
vt 0.826575 0.801126
vt 0.148622 0.805260
vt 0.148622 0.805260
vt 0.826575 0.801126
vt 0.826575 0.801126
vt 0.148622 0.805260
vt 0.148622 0.805260
vt 0.826575 0.801126
vt 0.826575 0.801126
vt 0.148622 0.805260
vt 0.148622 0.805260
vt 0.826575 0.801126
vt 0.826575 0.801126
vt 0.148622 0.805260
vt 0.148622 0.805260
vt 0.826575 0.801126
vt 0.826575 0.801126
vt 0.148622 0.805260
vt 0.148622 0.805260
vt 0.826575 0.801126
vt 0.826575 0.801126
vt 0.148622 0.805260
vt 0.148622 0.805260
vt 0.826575 0.801126
vt 0.826575 0.801126
vt 0.148622 0.805260
vt 0.148622 0.805260
vt 0.826575 0.801126
vt 0.826575 0.801126
vt 0.148622 0.805260
vt 0.148622 0.805260
vt 0.826575 0.801126
vt 0.826575 0.801126
vt 0.148622 0.805260
vt 0.148622 0.805260
vt 0.826575 0.801126
vt 0.826575 0.801126
vt 0.148622 0.805260
vt 0.148622 0.805260
vt 0.826575 0.801126
vt 0.826575 0.801126
vt 0.148622 0.805260
vt 0.148622 0.805260
vt 0.826575 0.801126
vt 0.826575 0.801126
vt 0.148622 0.805260
vt 0.148622 0.805260
vt 0.826575 0.801126
vt 0.826575 0.801126
vt 0.148622 0.805260
vt 0.148622 0.805260
vt 0.826575 0.801126
vt 0.826575 0.801126
vt 0.148622 0.805260
vt 0.148622 0.805260
vt 0.826575 0.801126
vt 0.826575 0.801126
vt 0.148622 0.805260
vt 0.148622 0.805260
vt 0.826575 0.801126
vt 0.826575 0.801126
vt 0.148622 0.805260
vt 0.148622 0.805260
vt 0.826575 0.801126
vt 0.826575 0.801126
vt 0.148622 0.805260
vt 0.826575 0.801126
vt 0.148622 0.805260
vt 0.826575 0.801126
vn 0.2079 0.9781 0.0000
vn 0.5878 0.8090 0.0000
vn 0.8660 0.5000 0.0000
vn 0.9945 0.1045 0.0000
vn 0.9511 -0.3090 -0.0000
vn 0.7431 -0.6691 -0.0000
vn 0.4067 -0.9135 -0.0000
vn 0.0000 -1.0000 -0.0000
vn -0.4067 -0.9135 -0.0000
vn -0.7431 -0.6691 -0.0000
vn -0.9511 -0.3090 -0.0000
vn -0.9945 0.1045 0.0000
vn -0.8660 0.5000 0.0000
vn 0.0000 0.0000 1.0000
vn -0.5878 0.8090 0.0000
vn -0.2079 0.9781 0.0000
vn -0.0000 0.0000 -1.0000
usemtl speedbump
s 1
f 1/1/1 2/2/1 3/3/1
f 4/4/2 5/5/2 2/2/2
f 6/6/3 7/7/3 5/5/3
f 8/8/4 9/9/4 7/7/4
f 10/10/5 11/11/5 9/9/5
f 12/12/6 13/13/6 11/11/6
f 14/14/7 15/15/7 13/13/7
f 16/16/8 17/17/8 15/15/8
f 18/18/9 19/19/9 17/17/9
f 20/20/10 21/21/10 19/19/10
f 22/22/11 23/23/11 21/21/11
f 24/24/12 25/25/12 23/23/12
f 26/26/13 27/27/13 25/25/13
f 8/8/14 1/1/14 24/24/14
f 28/28/15 29/29/15 27/27/15
f 30/30/16 3/3/16 29/29/16
f 31/31/17 32/32/17 33/33/17
f 34/34/16 35/35/16 36/36/16
f 37/37/16 38/38/16 34/39/16
f 39/40/16 40/41/16 37/42/16
f 29/43/16 41/44/16 39/45/16
f 42/46/15 36/36/15 33/33/15
f 43/47/15 34/39/15 42/48/15
f 44/49/15 37/42/15 43/50/15
f 27/51/15 39/45/15 44/52/15
f 45/53/13 33/33/13 46/54/13
f 47/55/13 42/48/13 45/56/13
f 48/57/13 43/50/13 47/58/13
f 25/59/13 44/52/13 48/60/13
f 49/61/12 46/54/12 32/32/12
f 50/62/12 45/56/12 49/63/12
f 51/64/12 47/58/12 50/65/12
f 23/66/12 48/60/12 51/67/12
f 52/68/11 32/32/11 53/69/11
f 54/70/11 49/63/11 52/71/11
f 55/72/11 50/65/11 54/73/11
f 21/74/11 51/67/11 55/75/11
f 56/76/10 53/69/10 31/31/10
f 57/77/10 52/71/10 56/78/10
f 58/79/10 54/73/10 57/80/10
f 19/81/10 55/75/10 58/82/10
f 59/83/9 31/31/9 60/84/9
f 61/85/9 56/78/9 59/86/9
f 62/87/9 57/80/9 61/88/9
f 17/89/9 58/82/9 62/90/9
f 63/91/8 60/84/8 64/92/8
f 65/93/8 59/86/8 63/94/8
f 66/95/8 61/88/8 65/96/8
f 15/97/8 62/90/8 66/98/8
f 67/99/7 64/92/7 68/100/7
f 69/101/7 63/94/7 67/102/7
f 70/103/7 65/96/7 69/104/7
f 13/105/7 66/98/7 70/106/7
f 71/107/6 68/100/6 72/108/6
f 73/109/6 67/102/6 71/110/6
f 74/111/6 69/104/6 73/112/6
f 11/113/6 70/106/6 74/114/6
f 75/115/5 72/108/5 76/116/5
f 77/117/5 71/110/5 75/118/5
f 78/119/5 73/112/5 77/120/5
f 9/121/5 74/114/5 78/122/5
f 79/123/4 76/116/4 80/124/4
f 81/125/4 75/118/4 79/126/4
f 82/127/4 77/120/4 81/128/4
f 7/129/4 78/122/4 82/130/4
f 83/131/3 80/124/3 84/132/3
f 85/133/3 79/126/3 83/134/3
f 86/135/3 81/128/3 85/136/3
f 5/137/3 82/130/3 86/138/3
f 87/139/2 84/132/2 88/140/2
f 89/141/2 83/134/2 87/142/2
f 90/143/2 85/136/2 89/144/2
f 2/145/2 86/138/2 90/146/2
f 38/147/1 88/140/1 35/35/1
f 40/148/1 87/142/1 38/38/1
f 41/149/1 89/144/1 40/41/1
f 3/150/1 90/146/1 41/44/1
f 1/1/1 4/4/1 2/2/1
f 4/4/2 6/6/2 5/5/2
f 6/6/3 8/8/3 7/7/3
f 8/8/4 10/10/4 9/9/4
f 10/10/5 12/12/5 11/11/5
f 12/12/6 14/14/6 13/13/6
f 14/14/7 16/16/7 15/15/7
f 16/16/8 18/18/8 17/17/8
f 18/18/9 20/20/9 19/19/9
f 20/20/10 22/22/10 21/21/10
f 22/22/11 24/24/11 23/23/11
f 24/24/12 26/26/12 25/25/12
f 26/26/13 28/28/13 27/27/13
f 6/6/14 4/4/14 1/1/14
f 1/1/14 30/30/14 28/28/14
f 28/28/14 26/26/14 24/24/14
f 24/24/14 22/22/14 20/20/14
f 20/20/14 18/18/14 24/24/14
f 18/18/14 16/16/14 24/24/14
f 16/16/14 14/14/14 12/12/14
f 12/12/14 10/10/14 8/8/14
f 8/8/14 6/6/14 1/1/14
f 1/1/14 28/28/14 24/24/14
f 16/16/14 12/12/14 24/24/14
f 12/12/14 8/8/14 24/24/14
f 28/28/15 30/30/15 29/29/15
f 30/30/16 1/1/16 3/3/16
f 36/36/17 35/35/17 88/140/17
f 88/140/17 84/132/17 80/124/17
f 80/124/17 76/116/17 72/108/17
f 72/108/17 68/100/17 64/92/17
f 64/92/17 60/84/17 31/31/17
f 31/31/17 53/69/17 32/32/17
f 32/32/17 46/54/17 33/33/17
f 33/33/17 36/36/17 72/108/17
f 36/36/17 88/140/17 72/108/17
f 88/140/17 80/124/17 72/108/17
f 72/108/17 64/92/17 33/33/17
f 64/92/17 31/31/17 33/33/17
f 34/34/16 38/147/16 35/35/16
f 37/37/16 40/148/16 38/38/16
f 39/40/16 41/149/16 40/41/16
f 29/43/16 3/150/16 41/44/16
f 42/46/15 34/34/15 36/36/15
f 43/47/15 37/37/15 34/39/15
f 44/49/15 39/40/15 37/42/15
f 27/51/15 29/43/15 39/45/15
f 45/53/13 42/46/13 33/33/13
f 47/55/13 43/47/13 42/48/13
f 48/57/13 44/49/13 43/50/13
f 25/59/13 27/51/13 44/52/13
f 49/61/12 45/53/12 46/54/12
f 50/62/12 47/55/12 45/56/12
f 51/64/12 48/57/12 47/58/12
f 23/66/12 25/59/12 48/60/12
f 52/68/11 49/61/11 32/32/11
f 54/70/11 50/62/11 49/63/11
f 55/72/11 51/64/11 50/65/11
f 21/74/11 23/66/11 51/67/11
f 56/76/10 52/68/10 53/69/10
f 57/77/10 54/70/10 52/71/10
f 58/79/10 55/72/10 54/73/10
f 19/81/10 21/74/10 55/75/10
f 59/83/9 56/76/9 31/31/9
f 61/85/9 57/77/9 56/78/9
f 62/87/9 58/79/9 57/80/9
f 17/89/9 19/81/9 58/82/9
f 63/91/8 59/83/8 60/84/8
f 65/93/8 61/85/8 59/86/8
f 66/95/8 62/87/8 61/88/8
f 15/97/8 17/89/8 62/90/8
f 67/99/7 63/91/7 64/92/7
f 69/101/7 65/93/7 63/94/7
f 70/103/7 66/95/7 65/96/7
f 13/105/7 15/97/7 66/98/7
f 71/107/6 67/99/6 68/100/6
f 73/109/6 69/101/6 67/102/6
f 74/111/6 70/103/6 69/104/6
f 11/113/6 13/105/6 70/106/6
f 75/115/5 71/107/5 72/108/5
f 77/117/5 73/109/5 71/110/5
f 78/119/5 74/111/5 73/112/5
f 9/121/5 11/113/5 74/114/5
f 79/123/4 75/115/4 76/116/4
f 81/125/4 77/117/4 75/118/4
f 82/127/4 78/119/4 77/120/4
f 7/129/4 9/121/4 78/122/4
f 83/131/3 79/123/3 80/124/3
f 85/133/3 81/125/3 79/126/3
f 86/135/3 82/127/3 81/128/3
f 5/137/3 7/129/3 82/130/3
f 87/139/2 83/131/2 84/132/2
f 89/141/2 85/133/2 83/134/2
f 90/143/2 86/135/2 85/136/2
f 2/145/2 5/137/2 86/138/2
f 38/147/1 87/139/1 88/140/1
f 40/148/1 89/141/1 87/142/1
f 41/149/1 90/143/1 89/144/1
f 3/150/1 2/145/1 90/146/1
