# Blender v3.0.1 OBJ File: 'cpsMap.blend'
# www.blender.org
mtllib cpsMap_Streetlight.mtl
o StreetLight_2_Mesh.001
v 0.227361 -0.001246 -0.393192
v 0.226470 0.148986 -0.396330
v 0.453468 0.150628 -0.004077
v 0.454201 0.000415 0.000606
v -0.227361 -0.001246 -0.393192
v -0.226470 0.148986 -0.396330
v -0.454201 0.000415 0.000606
v -0.453468 0.150628 -0.004077
v -0.226828 0.002057 0.393480
v -0.226989 0.152289 0.389072
v 0.226828 0.002057 0.393480
v 0.226989 0.152289 0.389072
v 0.169636 15.148306 -0.350907
v -0.169636 15.148306 -0.350907
v -0.339270 15.024133 -0.084616
v -0.169636 14.899959 0.181672
v 0.169636 14.899959 0.181672
v 0.339270 15.024133 -0.084616
v 0.151990 14.240979 -0.347871
v 0.303979 14.240979 -0.084616
v 0.303979 13.882151 -0.084616
v 0.151990 13.882151 -0.347871
v -0.303979 14.240979 -0.084616
v -0.151990 14.240979 -0.347871
v -0.151990 13.882151 -0.347871
v -0.303979 13.882151 -0.084616
v -0.151990 14.240979 0.178635
v -0.151990 13.882151 0.178635
v 0.151990 14.240979 0.178635
v 0.151990 13.882151 0.178635
v 0.151990 14.212887 -1.163366
v 0.151990 14.571717 -1.163366
v -0.151990 14.212887 -1.163366
v -0.151990 14.571717 -1.163366
v 0.151990 14.433288 -2.147322
v 0.151990 14.792116 -2.147322
v -0.151990 14.433288 -2.147322
v -0.151990 14.792116 -2.147322
v 0.151990 14.560265 -3.978235
v 0.151990 14.919095 -3.978235
v -0.151990 14.560265 -3.978235
v -0.151990 14.919095 -3.978235
v 0.151990 14.335990 -5.264460
v 0.151990 14.694818 -5.264460
v -0.151990 14.335990 -5.264460
v -0.151990 14.694818 -5.264460
v 0.206397 14.233932 -5.498904
v 0.206397 14.656986 -5.498904
v -0.206400 14.233932 -5.498904
v -0.206400 14.656986 -5.498904
v 0.374755 14.136876 -5.782469
v 0.374755 14.676569 -5.829687
v 0.162909 14.142751 -5.561568
v -0.162912 14.142751 -5.561568
v -0.300647 14.063444 -5.793591
v 0.300645 14.063444 -5.793591
v -0.374755 14.676569 -5.829687
v -0.374755 14.136876 -5.782469
v 0.380417 14.085651 -6.320987
v 0.380417 14.633502 -6.368918
v -0.305959 14.018513 -6.298895
v 0.305956 14.018513 -6.298895
v -0.380417 14.633502 -6.368918
v -0.380417 14.085651 -6.320987
v 0.184034 14.085168 -6.793454
v 0.184034 14.350197 -6.816638
v -0.134451 14.018127 -6.711508
v 0.134449 14.018127 -6.711508
v -0.184034 14.350197 -6.816638
v -0.184034 14.085168 -6.793454
v 0.370890 0.150239 -0.003468
v 0.185445 0.150239 -0.324670
v -0.185445 0.150239 -0.324670
v -0.370890 0.150239 -0.003468
v -0.185445 0.150239 0.317730
v 0.185445 0.150239 0.317730
vt 0.179327 0.828125
vt 0.179327 0.828125
vt 0.179327 0.828125
vt 0.179327 0.828125
vt 0.179327 0.828125
vt 0.179327 0.828125
vt 0.179327 0.828125
vt 0.179327 0.828125
vt 0.179327 0.828125
vt 0.179327 0.828125
vt 0.179327 0.828125
vt 0.179327 0.828125
vt 0.179327 0.828125
vt 0.179327 0.828125
vt 0.179327 0.828125
vt 0.179327 0.828125
vt 0.179327 0.828125
vt 0.179327 0.828125
vt 0.179327 0.828125
vt 0.179327 0.828125
vt 0.179327 0.828125
vt 0.179327 0.828125
vt 0.179327 0.828125
vt 0.179327 0.828125
vt 0.179327 0.828125
vt 0.179327 0.828125
vt 0.179327 0.828125
vt 0.179327 0.828125
vt 0.179327 0.828125
vt 0.179327 0.828125
vt 0.179327 0.828125
vt 0.179327 0.828125
vt 0.179327 0.828125
vt 0.179327 0.828125
vt 0.179327 0.828125
vt 0.179327 0.828125
vt 0.179327 0.828125
vt 0.179327 0.828125
vt 0.179327 0.828125
vt 0.179327 0.828125
vt 0.179327 0.828125
vt 0.179327 0.828125
vt 0.179327 0.828125
vt 0.179327 0.828125
vt 0.179327 0.828125
vt 0.179327 0.828125
vt 0.179327 0.828125
vt 0.179327 0.828125
vt 0.179327 0.828125
vt 0.179327 0.828125
vt 0.179327 0.828125
vt 0.179327 0.828125
vt 0.481410 0.828125
vt 0.481410 0.828125
vt 0.481410 0.828125
vt 0.481410 0.828125
vt 0.179327 0.828125
vt 0.179327 0.828125
vt 0.179327 0.828125
vt 0.179327 0.828125
vt 0.481410 0.828125
vt 0.481410 0.828125
vt 0.179327 0.828125
vt 0.179327 0.828125
vt 0.179327 0.828125
vt 0.179327 0.828125
vt 0.481410 0.828125
vt 0.481410 0.828125
vt 0.179327 0.828125
vt 0.179327 0.828125
vt 0.179327 0.828125
vt 0.179327 0.828125
vt 0.179327 0.828125
vt 0.179327 0.828125
vt 0.179327 0.828125
vt 0.179327 0.828125
vt 0.179327 0.828125
vt 0.179327 0.828125
vt 0.179327 0.828125
vt 0.179327 0.828125
vt 0.179327 0.828125
vt 0.179327 0.828125
vt 0.179327 0.828125
vt 0.179327 0.828125
vn 0.8663 -0.0100 -0.4995
vn 0.8655 -0.0053 -0.5009
vn 0.8657 -0.0066 -0.5005
vn 0.8665 -0.0113 -0.4991
vn 0.0000 -0.0209 -0.9998
vn -0.8663 -0.0066 -0.4995
vn -0.8655 -0.0114 -0.5008
vn -0.8657 -0.0101 -0.5004
vn -0.8665 -0.0053 -0.4991
vn -0.8656 0.0185 0.5003
vn -0.8665 0.0137 0.4991
vn -0.8662 0.0150 0.4994
vn -0.8654 0.0198 0.5007
vn 0.0000 0.0293 0.9996
vn 0.8656 0.0151 0.5004
vn 0.8664 0.0198 0.4990
vn 0.8662 0.0185 0.4994
vn 0.8654 0.0138 0.5008
vn -0.0000 0.9063 0.4226
vn 0.8660 0.0000 -0.5000
vn 0.8660 0.0011 -0.5000
vn -0.8660 0.0000 -0.5000
vn -0.8660 0.0002 -0.5000
vn -0.8660 0.0011 -0.5000
vn -0.8660 -0.0000 0.5000
vn -0.8660 0.0071 0.5000
vn -0.0000 -0.0000 1.0000
vn 0.0000 -0.0046 1.0000
vn 0.0000 0.0101 0.9999
vn 0.8660 -0.0000 0.5000
vn 0.8660 0.0072 0.5000
vn 0.8348 -0.0376 -0.5493
vn 0.8659 -0.0185 -0.4999
vn 0.0000 -0.0033 -1.0000
vn -0.8394 -0.0181 -0.5432
vn -0.8654 -0.0390 -0.4996
vn -0.8508 -0.0383 0.5241
vn -0.8657 -0.0255 0.4998
vn 0.8484 -0.0252 0.5287
vn 0.8654 -0.0390 0.4996
vn 1.0000 0.0000 0.0000
vn 0.0000 -0.9267 -0.3758
vn -1.0000 0.0000 0.0000
vn 0.0000 0.9267 0.3758
vn 0.0000 -0.9758 -0.2186
vn 0.0000 0.9758 0.2186
vn 0.0000 -0.9976 -0.0692
vn 0.0000 0.9976 0.0692
vn 0.0000 -0.9851 0.1718
vn 0.0000 0.9851 -0.1718
vn -0.0000 0.9852 -0.1715
vn 0.0000 0.9873 -0.1590
vn 0.9741 0.0000 0.2261
vn 0.0000 -0.9169 0.3991
vn -0.9741 0.0000 0.2261
vn 0.0000 0.9872 -0.1593
vn 0.8599 0.0000 0.5105
vn 0.8895 0.0398 0.4551
vn 0.0000 -0.9463 0.3234
vn -0.8912 0.0000 0.4536
vn -0.8655 0.0437 0.4989
vn 0.0000 0.9983 0.0591
vn 0.9999 0.0009 0.0104
vn 0.0000 -0.9961 0.0886
vn -0.9999 0.0009 0.0104
vn 0.0000 0.9968 -0.0796
vn 0.9229 -0.0336 -0.3836
vn 0.0000 -1.0000 0.0009
vn -0.9229 -0.0336 -0.3836
vn 0.0000 0.8450 -0.5347
vn 0.0000 -0.0871 -0.9962
vn 0.0000 -0.5664 0.8241
vn -0.5487 -0.6355 0.5432
vn -0.5484 -0.6357 0.5432
vn -0.5491 -0.6352 0.5431
vn -0.5492 -0.6352 0.5431
vn -0.6801 -0.7291 0.0765
vn -0.6967 -0.7138 0.0708
vn -0.6060 -0.7548 -0.2512
vn -0.6058 -0.7549 -0.2510
vn -0.6059 -0.7549 -0.2511
vn -0.6060 -0.7547 -0.2512
vn 0.0000 -0.7740 -0.6332
vn 0.6058 -0.7549 -0.2511
vn 0.6060 -0.7548 -0.2511
vn 0.6058 -0.7550 -0.2511
vn 0.6961 -0.7140 0.0752
vn 0.6796 -0.7300 0.0721
vn 0.5489 -0.6353 0.5433
vn 0.5489 -0.6352 0.5433
vn 0.5487 -0.6357 0.5430
vn 0.5485 -0.6358 0.5430
vn 0.8660 0.0013 -0.5000
vn 0.0000 -0.0017 -1.0000
vn -0.8660 0.0013 -0.5000
vn -0.8660 0.0072 0.5000
vn -0.0047 1.0000 0.0027
vn -0.0052 1.0000 -0.0067
vn -0.0049 1.0000 0.0023
vn 0.0115 0.9999 -0.0109
vn 0.0000 0.9998 -0.0175
vn 0.0114 0.9999 -0.0112
vn -0.0248 0.9996 -0.0143
vn -0.0048 1.0000 -0.0070
vn 0.0000 0.9996 -0.0287
vn 0.0047 1.0000 -0.0027
vn 0.0047 1.0000 -0.0021
vn 0.0047 1.0000 -0.0020
vn 0.0212 0.9996 -0.0164
vn -0.0152 0.9998 -0.0088
vn 0.0047 1.0000 -0.0015
vn 0.0000 -1.0000 0.0042
usemtl streetlight
s 1
f 1/1/1 2/2/2 3/3/3
f 3/3/3 4/4/4 1/1/1
f 5/5/5 6/6/5 2/2/5
f 2/2/5 1/1/5 5/5/5
f 7/7/6 8/8/7 6/6/8
f 6/6/8 5/5/9 7/7/6
f 9/9/10 10/10/11 8/8/12
f 8/8/12 7/7/13 9/9/10
f 11/11/14 12/12/14 10/10/14
f 10/10/14 9/9/14 11/11/14
f 4/4/15 3/3/16 12/12/17
f 12/12/17 11/11/18 4/4/15
f 13/13/19 14/14/19 15/15/19
f 15/15/19 16/16/19 17/17/19
f 13/13/19 15/15/19 17/17/19
f 18/18/19 13/13/19 17/17/19
f 19/19/20 20/20/20 21/21/20
f 21/21/20 22/22/21 19/19/20
f 23/23/22 24/24/22 25/25/23
f 25/25/23 26/26/24 23/23/22
f 27/27/25 23/23/25 26/26/25
f 26/26/25 28/28/26 27/27/25
f 29/29/27 27/27/28 28/28/27
f 28/28/27 30/30/29 29/29/27
f 20/20/30 29/29/30 30/30/30
f 30/30/30 21/21/31 20/20/30
f 13/13/32 18/18/32 20/20/32
f 20/20/33 19/19/33 13/13/33
f 14/14/34 13/13/34 19/19/34
f 19/19/34 24/24/34 14/14/34
f 15/15/35 14/14/35 24/24/35
f 24/24/36 23/23/36 15/15/36
f 16/16/37 15/15/37 23/23/37
f 23/23/38 27/27/38 16/16/38
f 17/17/28 16/16/28 27/27/28
f 27/27/28 29/29/27 17/17/28
f 18/18/39 17/17/39 29/29/39
f 29/29/40 20/20/40 18/18/40
f 19/19/41 22/22/41 31/31/41
f 31/31/41 32/32/41 19/19/41
f 22/22/42 25/25/42 33/33/42
f 33/33/42 31/31/42 22/22/42
f 25/25/43 24/24/43 34/34/43
f 34/34/43 33/33/43 25/25/43
f 24/24/44 19/19/44 32/32/44
f 32/32/44 34/34/44 24/24/44
f 32/32/41 31/31/41 35/35/41
f 35/35/41 36/36/41 32/32/41
f 31/31/45 33/33/45 37/37/45
f 37/37/45 35/35/45 31/31/45
f 33/33/43 34/34/43 38/38/43
f 38/38/43 37/37/43 33/33/43
f 34/34/46 32/32/46 36/36/46
f 36/36/46 38/38/46 34/34/46
f 36/36/41 35/35/41 39/39/41
f 39/39/41 40/40/41 36/36/41
f 35/35/47 37/37/47 41/41/47
f 41/41/47 39/39/47 35/35/47
f 37/37/43 38/38/43 42/42/43
f 42/42/43 41/41/43 37/37/43
f 38/38/48 36/36/48 40/40/48
f 40/40/48 42/42/48 38/38/48
f 40/40/41 39/39/41 43/43/41
f 43/43/41 44/44/41 40/40/41
f 39/39/49 41/41/49 45/45/49
f 45/45/49 43/43/49 39/39/49
f 41/41/43 42/42/43 46/46/43
f 46/46/43 45/45/43 41/41/43
f 42/42/50 40/40/50 44/44/51
f 44/44/51 46/46/52 42/42/50
f 44/44/53 43/43/53 47/47/53
f 47/47/53 48/48/53 44/44/53
f 43/43/54 45/45/54 49/49/54
f 49/49/54 47/47/54 43/43/54
f 45/45/55 46/46/55 50/50/55
f 50/50/55 49/49/55 45/45/55
f 46/46/52 44/44/51 48/48/56
f 48/48/56 50/50/56 46/46/52
f 48/48/57 47/47/57 51/51/57
f 51/51/58 52/52/58 48/48/58
f 53/53/59 54/54/59 55/55/59
f 55/55/59 56/56/59 53/53/59
f 49/49/60 50/50/60 57/57/60
f 57/57/61 58/58/61 49/49/61
f 50/50/62 48/48/62 52/52/62
f 52/52/62 57/57/62 50/50/62
f 52/52/63 51/51/63 59/59/63
f 59/59/63 60/60/63 52/52/63
f 56/56/64 55/55/64 61/61/64
f 61/61/64 62/62/64 56/56/64
f 58/58/65 57/57/65 63/63/65
f 63/63/65 64/64/65 58/58/65
f 57/57/66 52/52/66 60/60/66
f 60/60/66 63/63/66 57/57/66
f 60/60/67 59/59/67 65/65/67
f 65/65/67 66/66/67 60/60/67
f 62/62/68 61/61/68 67/67/68
f 67/67/68 68/68/68 62/62/68
f 64/64/69 63/63/69 69/69/69
f 69/69/69 70/70/69 64/64/69
f 63/63/70 60/60/70 66/66/70
f 66/66/70 69/69/70 63/63/70
f 70/70/71 69/69/71 66/66/71
f 66/66/71 65/65/71 70/70/71
f 47/47/72 49/49/72 54/71/72
f 54/71/72 53/72/72 47/47/72
f 49/49/73 58/58/74 55/73/75
f 55/73/75 54/71/76 49/49/73
f 58/58/77 64/64/77 61/74/77
f 61/74/78 55/73/78 58/58/78
f 64/64/79 70/70/80 67/75/81
f 67/75/81 61/74/82 64/64/79
f 70/70/83 65/65/83 68/76/83
f 68/76/83 67/75/83 70/70/83
f 65/65/84 59/59/85 62/77/85
f 62/77/85 68/76/86 65/65/84
f 59/59/87 51/51/87 56/78/87
f 56/78/88 62/77/88 59/59/88
f 51/51/89 47/47/90 53/72/91
f 53/72/91 56/78/92 51/51/89
f 22/22/21 21/21/20 71/79/93
f 71/79/93 72/80/93 22/22/21
f 25/25/94 22/22/94 72/80/94
f 72/80/94 73/81/94 25/25/94
f 26/26/24 25/25/23 73/81/95
f 73/81/95 74/82/95 26/26/24
f 28/28/26 26/26/25 74/82/96
f 74/82/96 75/83/96 28/28/26
f 30/30/29 28/28/27 75/83/29
f 75/83/29 76/84/29 30/30/29
f 21/21/31 30/30/30 76/84/31
f 76/84/31 71/79/31 21/21/31
f 72/80/97 71/79/98 3/3/99
f 3/3/100 2/2/101 72/80/102
f 71/79/103 76/84/103 12/12/103
f 12/12/104 3/3/99 71/79/98
f 76/84/105 75/83/105 10/10/105
f 10/10/105 12/12/105 76/84/105
f 75/83/106 74/82/107 8/8/108
f 8/8/109 10/10/109 75/83/109
f 74/82/110 73/81/110 6/6/110
f 6/6/111 8/8/108 74/82/107
f 73/81/101 72/80/102 2/2/101
f 2/2/101 6/6/101 73/81/101
f 11/11/112 9/9/112 7/7/112
f 7/7/112 5/5/112 1/1/112
f 11/11/112 7/7/112 1/1/112
f 4/4/112 11/11/112 1/1/112
