# Blender v3.0.1 OBJ File: 'cpsMap.blend'
# www.blender.org
mtllib cpsMap_Ramp.mtl
o Ramp.002_Cube.016
v -2.426855 -0.970742 -1.456113
v -2.426855 1.941484 -1.456113
v 4.853710 -0.970742 -1.456113
v -2.426855 1.941484 1.456113
v -2.426855 -0.970742 1.456113
v 4.853710 -0.970742 1.456113
v -2.426855 1.941484 -1.019279
v -2.426855 -0.970742 -1.019279
v 4.853710 -0.970742 1.019279
v -2.426855 -0.970742 1.019279
v -2.426855 1.941484 1.019279
v 4.853710 -0.970742 -1.019279
vt 0.500000 0.875000
vt 0.500000 0.875000
vt 0.500000 0.875000
vt 0.500000 0.875000
vt 0.500000 0.875000
vt 0.500000 0.875000
vt 0.500000 0.875000
vt 0.500000 0.875000
vt 0.500000 0.875000
vt 0.500000 0.875000
vt 0.500000 0.875000
vt 0.125000 0.875000
vt 0.125000 0.875000
vt 0.125000 0.875000
vt 0.125000 0.875000
vt 0.125000 0.875000
vt 0.500000 0.875000
vt 0.125000 0.875000
vn 0.0000 0.0000 -1.0000
vn 0.0000 -0.0000 1.0000
vn -1.0000 -0.0000 0.0000
vn 0.0000 -1.0000 -0.0000
vn 0.3714 0.9285 0.0000
usemtl ramp
s 1
f 1/1/1 2/2/1 3/3/1
f 4/4/2 5/5/2 6/6/2
f 7/7/3 1/1/3 8/8/3
f 9/9/4 5/5/4 10/10/4
f 11/11/5 6/6/5 9/9/5
f 7/12/5 9/13/5 12/14/5
f 12/14/4 10/15/4 8/16/4
f 4/4/3 10/10/3 5/5/3
f 3/3/4 8/8/4 1/1/4
f 2/2/5 12/17/5 3/3/5
f 11/18/3 8/16/3 10/15/3
f 7/7/3 2/2/3 1/1/3
f 9/9/4 6/6/4 5/5/4
f 11/11/5 4/4/5 6/6/5
f 7/12/5 11/18/5 9/13/5
f 12/14/4 9/13/4 10/15/4
f 4/4/3 11/11/3 10/10/3
f 3/3/4 12/17/4 8/8/4
f 2/2/5 7/7/5 12/17/5
f 11/18/3 7/12/3 8/16/3
