# Blender v3.0.1 OBJ File: 'gamemapBrickWallTest.blend'
# www.blender.org
mtllib gamemapBrickWall4.mtl
o Plane.068_Plane.007
v 181.999985 -2.249984 -99.750000
v 182.000000 50.250008 -47.249992
v 182.000000 -2.249990 -47.250000
v 182.000000 -2.249999 5.250000
v 182.000000 50.249992 57.750008
v 182.000000 -2.250007 57.750000
v 182.000000 50.249981 110.250008
v 182.000000 -2.250016 110.250000
v 182.000000 50.250000 5.250008
v 182.000000 50.250015 -99.749992
vt 1.000000 0.000000
vt 0.000000 0.000000
vt 0.000000 1.000000
vt 1.000000 0.000000
vt 0.000000 0.000000
vt 0.000000 1.000000
vt 1.000000 0.000000
vt 0.000000 0.000000
vt 0.000000 1.000000
vt 1.000000 0.000000
vt 0.000000 0.000000
vt 0.000000 1.000000
vt 1.000000 1.000000
vt 1.000000 1.000000
vt 1.000000 1.000000
vt 1.000000 1.000000
vn -1.0000 -0.0000 0.0000
usemtl Wall.001
s 1
f 1/1/1 3/2/1 2/3/1
f 4/4/1 6/5/1 5/6/1
f 6/7/1 8/8/1 7/9/1
f 3/10/1 4/11/1 9/12/1
f 1/1/1 2/3/1 10/13/1
f 4/4/1 5/6/1 9/14/1
f 6/7/1 7/9/1 5/15/1
f 3/10/1 9/12/1 2/16/1
