# Blender v3.0.1 OBJ File: 'gamemapBrickWallTest.blend'
# www.blender.org
mtllib gamemapBrickWall1.mtl
o Plane.068_Plane.007
v 181.750000 -2.250000 97.000000
v 129.250000 50.250000 97.000000
v 181.750000 50.250000 97.000000
v 24.250000 -2.249998 97.000000
v 24.250000 50.250000 97.000000
v 76.750000 50.250000 97.000000
v -80.750000 -2.249998 97.000000
v -28.250000 -2.249998 97.000000
v -80.750000 50.250000 97.000000
v -28.250000 50.250000 97.000000
v -185.750000 -2.249998 97.000000
v -133.250000 -2.249998 97.000000
v -185.750000 50.250000 97.000000
v -133.250000 50.250000 97.000000
v 76.750000 -2.249998 97.000000
v 129.250000 -2.249998 97.000000
vt 0.000000 1.000000
vt 1.000000 0.000000
vt 0.000000 0.000000
vt 0.000000 1.000000
vt 1.000000 0.000000
vt 0.000000 0.000000
vt 0.000000 1.000000
vt 1.000000 0.000000
vt 0.000000 0.000000
vt 0.000000 1.000000
vt 1.000000 0.000000
vt 0.000000 0.000000
vt 0.000000 1.000000
vt 1.000000 0.000000
vt 0.000000 0.000000
vt 0.000000 1.000000
vt 1.000000 0.000000
vt 0.000000 0.000000
vt 0.000000 1.000000
vt 1.000000 0.000000
vt 0.000000 0.000000
vt 1.000000 1.000000
vt 1.000000 1.000000
vt 1.000000 1.000000
vt 1.000000 1.000000
vt 1.000000 1.000000
vt 1.000000 1.000000
vt 1.000000 1.000000
vn -0.0000 0.0000 -1.0000
usemtl Wall
s off
f 2/1/1 1/2/1 16/3/1
f 5/4/1 15/5/1 4/6/1
f 10/7/1 4/8/1 8/9/1
f 9/10/1 8/11/1 7/12/1
f 14/13/1 7/14/1 12/15/1
f 13/16/1 12/17/1 11/18/1
f 6/19/1 16/20/1 15/21/1
f 2/1/1 3/22/1 1/2/1
f 5/4/1 6/23/1 15/5/1
f 10/7/1 5/24/1 4/8/1
f 9/10/1 10/25/1 8/11/1
f 14/13/1 9/26/1 7/14/1
f 13/16/1 14/27/1 12/17/1
f 6/19/1 2/28/1 16/20/1
