# Blender v3.0.1 OBJ File: 'gamemapBrickWallTest.blend'
# www.blender.org
mtllib gamemapBrickWall3.mtl
o Plane.068_Plane.007
v -186.000015 -2.250000 -99.750000
v -186.000000 50.250000 -47.250000
v -186.000000 50.250000 -99.750000
v -186.000000 -2.249998 57.750000
v -186.000000 50.250000 57.750000
v -186.000000 50.250000 5.250000
v -186.000000 -2.249998 110.250000
v -186.000000 50.250000 110.250000
v -186.000000 -2.249998 5.250000
v -186.000000 -2.249998 -47.250000
vt 1.000000 0.000000
vt 0.000000 1.000000
vt 0.000000 0.000000
vt 1.000000 0.000000
vt 0.000000 1.000000
vt 0.000000 0.000000
vt 1.000000 0.000000
vt 0.000000 1.000000
vt 0.000000 0.000000
vt 1.000000 0.000000
vt 0.000000 1.000000
vt 0.000000 0.000000
vt 1.000000 1.000000
vt 1.000000 1.000000
vt 1.000000 1.000000
vt 1.000000 1.000000
vn 1.0000 0.0000 -0.0000
usemtl Wall
s off
f 1/1/1 2/2/1 10/3/1
f 9/4/1 5/5/1 4/6/1
f 4/7/1 8/8/1 7/9/1
f 10/10/1 6/11/1 9/12/1
f 1/1/1 3/13/1 2/2/1
f 9/4/1 6/14/1 5/5/1
f 4/7/1 5/15/1 8/8/1
f 10/10/1 2/16/1 6/11/1
