# Blender v3.0.1 OBJ File: 'untitled.blend'
# www.blender.org
mtllib Rock1.mtl
o rock.015
v 0.477198 -0.208792 0.204004
v 0.527889 -0.263961 0.131383
v 0.502208 -0.044419 0.108319
v 0.412281 -0.110011 0.257358
v 0.388301 0.056181 0.146556
v 0.454066 0.110598 -0.080141
v 0.310948 0.298314 -0.019502
v 0.460995 0.078541 0.044787
v 0.430176 -0.338360 0.200605
v 0.352208 -0.365325 0.218840
v 0.295708 -0.250090 0.288492
v 0.556673 -0.135696 -0.016792
v 0.532463 -0.327596 0.053106
v 0.421909 -0.524432 -0.032913
v 0.539790 -0.401946 -0.026131
v 0.328469 -0.538572 0.030840
v 0.539659 -0.058024 -0.155928
v 0.565873 -0.164762 -0.241463
v 0.460279 0.008089 -0.252907
v 0.414537 -0.107779 -0.301385
v 0.585141 -0.192487 -0.115901
v 0.593370 -0.320337 -0.163184
v 0.482846 -0.284341 -0.312622
v 0.312236 -0.244243 -0.354493
v 0.412181 -0.411733 -0.319941
v 0.268746 -0.391375 -0.383449
v -0.140443 0.443530 -0.342565
v -0.037703 0.494953 -0.227345
v 0.135653 0.516387 -0.201511
v 0.147126 0.451102 -0.265980
v -0.101749 0.509005 -0.040257
v 0.113527 0.543284 -0.038377
v -0.162920 0.491914 -0.223914
v -0.395981 0.334975 -0.265417
v -0.277131 0.472807 -0.266266
v -0.314837 0.321519 -0.336648
v 0.256641 0.272908 0.093307
v 0.096078 0.535779 0.089351
v -0.255493 0.468499 -0.024321
v -0.356569 0.429648 -0.044001
v 0.151723 0.222107 0.251969
v 0.001349 0.489211 0.278061
v -0.332477 0.492281 0.153944
v -0.380018 0.440175 0.069257
v -0.407925 0.338050 0.191219
v -0.145014 0.535346 0.139202
v -0.251507 0.483759 0.268200
v -0.148852 0.508549 0.269548
v -0.249067 0.311262 0.303587
v 0.025609 0.318540 0.342746
v -0.425951 0.165239 0.209215
v -0.309975 0.226140 0.293263
v 0.045379 0.096331 0.400858
v 0.203014 -0.041820 0.360957
v 0.256479 0.070029 0.219110
v -0.219126 0.151972 0.317197
v -0.291116 0.008110 0.350216
v 0.030708 -0.095446 0.467509
v -0.247004 -0.076499 0.365207
v -0.139539 -0.187665 0.417498
v -0.066591 -0.306290 0.478798
v 0.320380 -0.007639 -0.286032
v 0.004682 0.066454 -0.399484
v 0.138094 0.120329 -0.306153
v 0.295358 0.172842 -0.228698
v 0.034001 0.255893 -0.376741
v 0.269906 -0.121233 -0.344586
v 0.143119 -0.172513 -0.396591
v 0.167448 -0.354593 -0.433892
v 0.024029 -0.261373 -0.438033
v -0.115401 -0.035947 -0.462095
v -0.295870 -0.212233 -0.404829
v -0.384380 -0.117948 -0.422564
v -0.223532 0.139085 -0.406436
v -0.195874 0.290668 -0.383417
v 0.074460 -0.528611 0.269686
v 0.136690 -0.596054 0.064755
v 0.277924 -0.454864 0.203493
v 0.211410 -0.409628 0.286653
v 0.088712 -0.244334 0.401878
v 0.006593 -0.471994 0.374752
v -0.213135 -0.464502 0.230702
v -0.056216 -0.523964 0.126440
v -0.215645 -0.393021 0.378362
v -0.308685 -0.374950 0.219094
v -0.215273 -0.325562 0.417777
v -0.333682 -0.292028 0.342082
v -0.247482 -0.504019 0.021562
v -0.050860 -0.553498 -0.029271
v -0.450626 -0.259204 0.113901
v 0.135538 -0.496233 -0.124712
v 0.268527 -0.452002 -0.306130
v 0.289401 -0.478751 -0.188119
v 0.488483 -0.467993 -0.130385
v -0.189270 -0.432547 -0.212946
v 0.054137 -0.442026 -0.351638
v 0.010396 -0.501769 -0.179822
v -0.350374 -0.312690 -0.223210
v -0.083953 -0.410046 -0.365042
v -0.450317 -0.147162 -0.339000
v -0.412371 0.081419 -0.367015
v -0.314500 0.149500 -0.407042
v -0.263451 -0.319070 -0.354933
v -0.465829 -0.215983 -0.176621
v -0.459086 -0.315275 -0.044971
v -0.508126 -0.212258 0.049604
v -0.461985 0.059841 -0.253149
v -0.422758 0.337405 -0.177486
v -0.442527 0.253293 -0.127142
v -0.493270 0.121509 0.033193
v -0.442599 0.319361 0.042970
v -0.428079 -0.090634 0.212370
v -0.470984 0.018637 -0.053986
v -0.389959 0.072583 0.282050
v -0.344156 -0.140732 0.316141
v -0.425206 -0.239901 0.232558
v -0.133676 -0.288484 -0.422377
vt 0.181501 0.706192
vt 0.140421 0.758383
vt 0.089681 0.619791
vt 0.211251 0.633191
vt 0.140701 0.519168
vt 0.000000 0.000000
vt 1.000000 0.000000
vt 1.000000 1.000000
vt 0.229467 0.778290
vt 0.283866 0.781038
vt 0.306013 0.691358
vt 0.000096 0.713507
vt 0.115108 0.825093
vt 0.197401 0.999904
vt 0.091317 0.906986
vt 0.290860 0.982922
vt 0.288718 0.180406
vt 0.372632 0.182971
vt 0.293243 0.272669
vt 0.375574 0.280138
vt 0.354413 0.106854
vt 0.437759 0.111844
vt 0.453522 0.210912
vt 0.475295 0.305420
vt 0.531937 0.211481
vt 0.562633 0.292165
vt 0.275147 0.748440
vt 0.180581 0.741253
vt 0.119123 0.665786
vt 0.157087 0.621642
vt 0.099760 0.868938
vt 0.000097 0.704155
vt 0.010833 0.424882
vt 0.227327 0.803788
vt 0.391986 0.857909
vt 0.293212 0.833775
vt 0.380304 0.795858
vt 0.170461 0.328623
vt 0.224727 0.073061
vt 0.292781 0.149124
vt 0.532189 0.032233
vt 0.404515 0.000096
vt 0.620939 0.028314
vt 0.296968 0.378596
vt 0.385539 0.237806
vt 0.548653 0.153685
vt 0.603921 0.118044
vt 0.624141 0.218194
vt 0.443285 0.137713
vt 0.505161 0.205518
vt 0.455374 0.209528
vt 0.533927 0.287720
vt 0.392769 0.328630
vt 0.682794 0.316303
vt 0.584104 0.319633
vt 0.408695 0.454285
vt 0.332772 0.552586
vt 0.239158 0.482605
vt 0.076023 0.288522
vt 0.545451 0.376987
vt 0.603764 0.447226
vt 0.447200 0.555105
vt 0.590824 0.498968
vt 0.543352 0.572720
vt 0.517543 0.637705
vt 0.335537 0.354631
vt 0.405062 0.555275
vt 0.320015 0.494448
vt 0.216333 0.417655
vt 0.303805 0.604997
vt 0.420153 0.357690
vt 0.486119 0.413388
vt 0.570082 0.356082
vt 0.568233 0.449247
vt 0.498694 0.583532
vt 0.643715 0.626542
vt 0.610334 0.692375
vt 0.443255 0.690951
vt 0.362008 0.724699
vt 0.488994 0.807187
vt 0.476792 0.979424
vt 0.345145 0.832068
vt 0.386126 0.767481
vt 0.429498 0.642065
vt 0.510412 0.735049
vt 0.652876 0.743526
vt 0.600567 0.858220
vt 0.604284 0.667492
vt 0.706878 0.680803
vt 0.590403 0.631721
vt 0.658457 0.608041
vt 0.778884 0.852704
vt 0.653032 0.970399
vt 0.821891 0.592259
vt 0.768437 0.228436
vt 0.605302 0.254222
vt 0.646141 0.186307
vt 0.546910 0.085275
vt 0.630480 0.025356
vt 0.782234 0.490091
vt 0.663974 0.372085
vt 0.802139 0.336044
vt 0.000000 0.000000
vt 1.000000 0.000000
vt 1.000000 1.000000
vt 0.000000 0.000000
vt 1.000000 0.000000
vt 1.000000 1.000000
vt 0.680322 0.457769
vt 0.659047 0.731882
vt 0.530014 0.773954
vt 0.808933 0.642428
vt 0.467097 0.736620
vt 0.700357 0.573726
vt 0.780947 0.787726
vt 0.935796 0.791799
vt 0.000000 0.000000
vt 1.000000 0.000000
vt 1.000000 1.000000
vt 0.573525 0.844241
vt 0.391525 0.917243
vt 0.288984 0.999903
vt 0.451565 0.954303
vt 0.830911 0.269791
vt 0.709264 0.143308
vt 0.000000 0.000000
vt 1.000000 0.000000
vt 1.000000 1.000000
vt 0.894502 0.553361
vt 0.740335 0.474230
vt 0.930722 0.334113
vt 0.658206 0.391023
vt 0.660055 0.522652
vt 0.736886 0.574391
vt 0.039645 0.516171
vt 0.000000 0.000000
vt 1.000000 0.000000
vt 1.000000 1.000000
vt 0.277343 0.055275
vt 0.141663 0.243006
vt 0.483392 0.000097
vt 0.000000 0.000000
vt 1.000000 0.000000
vt 1.000000 1.000000
vt 0.628778 0.519797
vt 0.000000 0.000000
vt 1.000000 0.000000
vt 1.000000 1.000000
vt 0.935796 0.291986
vt 0.652246 0.970610
vt 0.000000 0.000000
vt 1.000000 0.000000
vt 1.000000 1.000000
vt 0.000000 0.000000
vt 1.000000 0.000000
vt 1.000000 1.000000
vt 1.000000 0.000000
vt 1.000000 1.000000
vt 0.930722 0.669067
vt 1.000000 1.000000
vn 0.8337 0.1776 0.5229
vn 0.9554 0.0505 0.2908
vn 0.8397 0.3554 0.4107
vn 0.6414 0.4300 0.6354
vn 0.5650 0.5240 0.6374
vn 0.8676 0.4892 0.0893
vn 0.8069 0.5814 0.1044
vn 0.8871 0.4538 0.0848
vn 0.7152 -0.4189 0.5594
vn 0.6838 -0.2660 0.6794
vn 0.6537 -0.5665 0.5017
vn 0.2790 -0.1671 0.9457
vn 0.3707 -0.2103 0.9046
vn 0.4123 -0.3489 0.8416
vn 0.4826 -0.2328 0.8443
vn 0.4440 -0.1826 0.8772
vn 0.9637 0.1920 0.1853
vn 0.9871 -0.0726 0.1425
vn 0.6374 -0.5949 0.4898
vn 0.5282 -0.5712 0.6282
vn 0.5640 -0.5755 0.5922
vn 0.4821 -0.7072 0.5172
vn 0.8931 0.4342 -0.1178
vn 0.9409 0.2930 -0.1699
vn 0.7453 0.5753 -0.3369
vn 0.4283 0.2144 -0.8778
vn 0.3107 0.2417 -0.9192
vn 0.2672 0.2816 -0.9216
vn 0.9691 0.2425 -0.0459
vn 0.9858 0.1104 -0.1269
vn 0.7356 -0.3830 -0.5588
vn 0.7351 -0.2889 -0.6133
vn 0.7719 -0.1716 -0.6122
vn 0.3051 0.0931 -0.9478
vn 0.3199 0.1225 -0.9395
vn 0.7008 -0.4722 -0.5347
vn 0.3101 -0.0110 -0.9506
vn 0.4359 0.0480 -0.8987
vn -0.0301 0.9254 -0.3777
vn -0.0700 0.9648 -0.2536
vn -0.0895 0.9741 -0.2074
vn -0.0458 0.3923 -0.9187
vn 0.1644 0.7076 -0.6873
vn 0.3043 0.4802 -0.8227
vn -0.1656 0.9811 -0.1004
vn -0.1414 0.9879 -0.0638
vn 0.9908 0.0495 0.1262
vn 0.7766 0.6155 -0.1346
vn 0.7764 0.5504 -0.3070
vn 0.8165 0.5382 -0.2091
vn -0.0705 0.9768 -0.2020
vn -0.5678 0.3959 -0.7217
vn -0.4131 0.4668 -0.7820
vn -0.4282 0.3728 -0.8232
vn -0.1661 0.9788 -0.1196
vn 0.6917 0.4960 0.5250
vn 0.8112 0.5394 0.2258
vn 0.8433 0.5173 0.1456
vn -0.2884 0.9150 -0.2822
vn -0.3231 0.9298 -0.1762
vn -0.0488 0.9974 0.0530
vn 0.6938 0.3615 0.6228
vn 0.7475 0.4054 0.5262
vn 0.7613 0.3770 0.5276
vn -0.7812 0.4789 0.4004
vn -0.8807 0.4726 0.0327
vn -0.8943 0.3517 0.2765
vn -0.1220 0.9924 0.0134
vn -0.2026 0.9554 0.2148
vn -0.2147 0.9550 0.2047
vn -0.0825 0.2570 0.9629
vn -0.0611 0.1998 0.9779
vn -0.3282 0.1788 0.9275
vn -0.1182 0.2606 0.9582
vn -0.7022 0.4723 0.5328
vn -0.5770 0.1830 0.7960
vn -0.6463 0.2242 0.7294
vn -0.4316 0.1889 0.8820
vn -0.5519 0.1601 0.8184
vn 0.5525 0.3240 0.7680
vn 0.5341 0.2191 0.8165
vn 0.5899 0.4650 0.6602
vn 0.6984 0.3029 0.6485
vn 0.6753 0.5661 0.4727
vn -0.1901 0.1496 0.9703
vn 0.0301 0.2093 0.9774
vn -0.3340 0.2625 0.9053
vn -0.2482 0.2417 0.9381
vn -0.3411 0.1248 0.9317
vn -0.3451 0.1722 0.9227
vn -0.3899 0.2220 0.8937
vn 0.2704 0.3303 -0.9043
vn 0.4232 0.1301 -0.8966
vn 0.3733 0.4002 -0.8369
vn 0.2791 0.3257 -0.9033
vn 0.5063 0.0599 -0.8603
vn 0.5054 -0.0602 -0.8608
vn 0.3195 0.1802 -0.9303
vn 0.3078 0.2299 -0.9232
vn 0.2886 0.1749 -0.9413
vn 0.3227 0.1678 -0.9315
vn 0.0468 -0.1445 -0.9884
vn 0.0519 0.0724 -0.9960
vn -0.1685 -0.2766 -0.9461
vn -0.4417 -0.0022 -0.8971
vn -0.0064 0.2882 -0.9575
vn -0.1277 0.2313 -0.9645
vn 0.4496 -0.6927 0.5640
vn 0.3798 -0.8132 0.4410
vn 0.4629 -0.6745 0.5752
vn 0.4681 -0.4295 0.7723
vn 0.4879 -0.2022 0.8492
vn 0.4809 -0.3934 0.7836
vn -0.4517 -0.8423 0.2940
vn -0.2476 -0.9348 0.2545
vn -0.2761 -0.9109 0.3067
vn -0.5121 -0.7762 0.3678
vn -0.6933 -0.6689 0.2684
vn -0.1939 -0.5817 0.7900
vn -0.2142 -0.5593 0.8008
vn -0.3669 -0.4978 0.7859
vn -0.4137 -0.4576 0.7870
vn -0.5707 -0.4119 0.7103
vn -0.6910 -0.6567 0.3023
vn -0.2310 -0.9532 0.1953
vn -0.2643 -0.9434 0.2003
vn -0.2362 -0.9712 0.0316
vn -0.7220 -0.6623 0.2000
vn -0.6982 -0.6734 0.2431
vn 0.0866 -0.9518 -0.2944
vn 0.1311 -0.8998 -0.4162
vn 0.0809 -0.9553 -0.2842
vn 0.1791 -0.9030 -0.3906
vn 0.1585 -0.9128 -0.3763
vn 0.0687 -0.9427 -0.3264
vn -0.3877 -0.8462 -0.3656
vn -0.0541 -0.9084 -0.4146
vn -0.0038 -0.9554 -0.2952
vn -0.3472 -0.8207 -0.4538
vn -0.3224 -0.8472 -0.4223
vn -0.4111 -0.8017 -0.4339
vn -0.5842 -0.6981 -0.4139
vn -0.0946 -0.4570 -0.8844
vn -0.1283 -0.4452 -0.8862
vn 0.1119 -0.7694 -0.6289
vn -0.9427 0.0320 -0.3322
vn -0.7398 0.1945 -0.6440
vn -0.5932 -0.5969 -0.5403
vn -0.5661 -0.6517 -0.5048
vn -0.5140 -0.5982 -0.6147
vn -0.2558 0.2918 -0.9216
vn -0.6269 -0.6523 -0.4261
vn -0.6792 -0.6278 -0.3801
vn -0.6060 -0.6990 -0.3797
vn -0.9783 -0.0587 -0.1986
vn -0.9907 -0.0394 -0.1306
vn -0.9413 -0.2909 -0.1712
vn -0.9287 0.2091 -0.3063
vn -0.9735 0.1061 -0.2025
vn -0.9628 0.2689 -0.0277
vn -0.9139 0.3438 0.2156
vn -0.9686 0.2373 -0.0741
vn -0.9944 0.0962 0.0432
vn -0.9287 0.3709 -0.0024
vn -0.8664 -0.0876 0.4916
vn -0.8012 -0.2183 0.5571
vn -0.8536 -0.0052 0.5210
vn -0.9835 0.0447 -0.1751
vn -0.7120 0.0993 0.6952
vn -0.6411 0.0418 0.7663
vn -0.5059 0.0373 0.8618
vn -0.7155 -0.6443 0.2702
vn -0.6013 0.0963 0.7932
vn -0.7546 0.0666 0.6528
vn -0.4199 0.1639 0.8927
vn 0.6200 0.5465 0.5630
vn 0.6779 0.6306 -0.3778
vn 0.7313 0.5695 -0.3753
vn 0.8117 -0.5833 -0.0300
vn 0.7765 -0.6298 0.0169
vn 0.7605 -0.6483 0.0364
vn 0.6797 -0.5820 -0.4464
vn 0.9454 -0.0680 0.3188
vn 0.9652 -0.0669 0.2528
vn 0.9415 -0.0619 0.3312
vn 0.7154 -0.6933 0.0872
vn -0.7236 0.6704 -0.1645
vn -0.7356 0.6328 -0.2415
vn -0.7252 0.6664 -0.1732
vn -0.7146 0.6888 -0.1217
vn -0.2975 0.9515 0.0784
vn -0.0831 0.9725 0.2176
vn 0.1062 0.9517 0.2882
vn 0.0503 -0.9461 -0.3199
vn -0.3195 0.9113 -0.2596
vn -0.3896 0.8863 -0.2502
vn -0.0075 0.3535 0.9354
vn 0.5069 -0.2442 0.8267
vn 0.5129 -0.0221 0.8582
vn -0.1675 -0.3460 -0.9232
vn -0.3115 -0.9156 0.2544
vn 0.1137 -0.8787 -0.4636
vn 0.0831 -0.9177 -0.3884
vn -0.2398 -0.2418 0.9402
vn -0.2764 -0.9043 -0.3252
vn -0.3093 -0.4877 -0.8164
vn -0.2690 -0.4517 -0.8507
vn 0.0721 -0.7314 -0.6781
vn -0.8440 0.4944 -0.2079
vn -0.9300 0.0671 0.3614
vn -0.9781 0.0093 0.2080
vn -0.7103 -0.6585 0.2489
vn -0.6827 -0.6432 0.3466
usemtl sandRock
s 1
f 1/1/1 2/2/2 3/3/3
f 3/3/3 4/4/4 1/1/1
f 5/5/5 4/4/4 3/3/3
f 6/6/6 7/7/7 8/8/8
f 2/2/9 1/1/10 9/9/11
f 9/9/12 1/1/13 10/10/14
f 11/11/15 10/10/14 4/4/16
f 12/12/17 3/3/3 2/2/2
f 2/2/2 13/13/18 12/12/17
f 13/13/19 2/2/9 9/9/11
f 13/13/19 14/14/20 15/15/21
f 13/13/19 16/16/22 14/14/20
f 17/17/23 18/18/24 19/19/25
f 18/18/26 20/20/27 19/19/28
f 18/18/24 21/21/29 22/22/30
f 22/22/31 23/23/32 18/18/33
f 18/18/26 23/23/34 20/20/27
f 23/23/34 24/24/35 20/20/27
f 22/22/31 25/25/36 23/23/32
f 25/25/37 26/26/38 24/24/35
f 27/27/39 28/28/40 29/29/41
f 27/27/42 29/29/43 30/30/44
f 28/28/40 31/31/45 32/32/46
f 32/32/46 29/29/41 28/28/40
f 30/30/47 29/29/47 32/32/47
f 32/32/48 7/33/49 30/30/50
f 28/28/40 27/27/39 33/34/51
f 34/35/52 35/36/53 36/37/54
f 33/34/51 35/36/55 31/31/45
f 31/31/45 28/28/40 33/34/51
f 37/38/56 32/39/57 38/40/58
f 39/41/59 31/42/45 40/43/60
f 38/40/61 32/39/46 31/42/45
f 41/44/62 38/40/63 42/45/64
f 38/40/63 41/44/62 37/38/56
f 43/46/65 44/47/66 45/48/67
f 39/41/59 46/49/68 31/42/45
f 46/49/68 43/46/69 47/50/70
f 48/51/71 47/50/72 49/52/73
f 49/52/73 50/53/74 48/51/71
f 47/50/75 43/46/65 45/48/67
f 45/48/76 51/54/77 52/55/78
f 45/48/76 49/52/73 47/50/79
f 52/55/78 49/52/73 45/48/76
f 53/56/80 54/57/81 41/44/62
f 41/44/62 54/57/81 55/58/82
f 41/44/62 50/53/83 53/56/80
f 37/38/56 55/58/82 5/5/5
f 37/38/56 41/44/62 55/58/82
f 5/5/5 7/59/84 37/38/56
f 56/60/85 52/55/78 57/61/86
f 58/62/87 53/56/88 59/63/89
f 58/62/87 60/64/90 61/65/91
f 4/4/4 55/58/82 54/57/81
f 62/66/92 63/67/93 64/68/94
f 65/69/95 19/19/28 62/66/92
f 65/69/96 64/68/97 66/70/98
f 63/67/93 67/71/99 68/72/100
f 68/72/100 69/73/101 70/74/102
f 67/71/99 63/67/93 62/66/92
f 62/66/92 20/20/27 67/71/99
f 69/73/101 68/72/100 24/24/35
f 24/24/35 68/72/100 67/71/99
f 71/75/103 63/67/93 68/72/100
f 71/75/103 68/72/100 70/74/102
f 71/75/103 72/76/104 73/77/105
f 71/75/103 74/78/106 66/70/98
f 75/79/107 66/70/98 74/78/106
f 74/78/106 36/37/54 75/79/107
f 76/80/108 77/81/109 78/82/110
f 78/82/110 79/83/111 76/80/108
f 79/83/111 80/84/112 81/85/113
f 78/82/110 10/10/14 79/83/111
f 80/84/112 79/83/111 11/11/15
f 82/86/114 83/87/115 81/85/116
f 82/86/114 84/88/117 85/89/118
f 81/85/119 61/65/120 84/88/121
f 86/90/122 87/91/123 84/88/121
f 87/91/124 85/89/118 84/88/117
f 88/92/125 77/81/126 83/87/115
f 88/92/125 89/93/127 77/81/126
f 83/87/115 82/86/114 88/92/125
f 85/89/118 90/94/128 88/92/129
f 16/16/22 9/9/11 78/82/110
f 91/95/130 92/96/131 93/97/132
f 25/25/133 94/98/134 93/97/132
f 93/97/132 94/98/134 14/99/135
f 95/100/136 96/101/137 97/102/138
f 97/103/139 89/104/140 88/105/141
f 88/106/141 98/107/142 97/108/139
f 99/109/143 70/74/102 96/101/144
f 26/26/145 25/25/133 92/96/131
f 100/110/146 101/111/147 73/77/105
f 72/76/148 98/112/142 100/110/149
f 100/110/149 73/77/150 72/76/148
f 101/111/147 102/113/151 73/77/105
f 98/112/142 103/114/152 95/100/136
f 104/115/153 98/112/142 105/116/154
f 106/117/155 104/118/156 105/119/157
f 34/35/158 107/120/159 108/121/160
f 40/122/161 108/121/160 109/123/162
f 107/120/159 34/35/158 101/111/147
f 102/113/151 101/111/147 36/37/54
f 110/124/163 45/48/67 111/125/164
f 109/126/162 110/127/163 111/128/164
f 106/129/165 90/94/166 112/130/167
f 112/130/167 110/124/163 106/129/165
f 110/124/163 113/131/168 106/129/155
f 114/132/169 112/130/167 115/133/170
f 115/133/170 57/61/171 114/132/169
f 116/134/172 85/89/118 87/91/124
f 87/91/173 115/133/170 116/134/174
f 115/133/170 87/91/173 59/63/89
f 87/91/173 86/90/175 59/63/89
f 114/132/169 52/55/78 51/54/77
f 57/61/171 52/55/78 114/132/169
f 5/5/5 3/3/3 8/135/176
f 8/135/8 3/3/3 12/12/17
f 8/136/8 12/137/17 6/138/6
f 8/135/176 7/59/84 5/5/5
f 10/10/14 1/1/13 4/4/16
f 13/13/19 9/9/11 16/16/22
f 12/139/17 21/21/29 17/17/23
f 17/17/23 6/140/6 12/139/17
f 19/19/28 20/20/27 62/66/92
f 6/140/177 17/17/23 19/19/25
f 6/140/177 19/19/25 65/69/178
f 18/18/24 17/17/23 21/21/29
f 22/22/179 15/141/180 94/98/181
f 94/98/182 25/25/36 22/22/31
f 21/21/183 12/139/17 15/141/184
f 15/141/184 22/22/185 21/21/183
f 15/15/184 12/12/17 13/13/18
f 94/98/181 15/141/180 14/99/186
f 23/23/34 25/25/37 24/24/35
f 30/30/44 66/70/98 27/27/42
f 33/34/51 27/27/39 35/36/55
f 35/36/53 27/27/42 36/37/54
f 36/37/54 27/27/42 75/79/107
f 35/36/187 34/35/188 108/121/189
f 35/36/187 108/121/189 40/122/190
f 40/122/191 31/31/45 35/36/55
f 38/40/61 48/51/192 42/45/193
f 48/51/192 38/40/61 46/49/68
f 31/42/45 46/49/68 38/40/61
f 41/44/62 42/45/64 50/53/83
f 16/142/194 91/143/130 14/144/135
f 39/41/59 43/46/195 46/49/68
f 43/46/195 39/41/59 44/47/196
f 44/47/196 39/41/59 40/43/60
f 48/51/192 46/49/68 47/50/70
f 48/51/71 50/53/74 42/45/197
f 55/58/82 4/4/4 5/5/5
f 59/63/89 53/56/88 56/60/85
f 56/60/85 57/61/86 59/63/89
f 49/52/73 53/56/88 50/53/74
f 49/52/73 56/60/85 53/56/88
f 58/62/87 59/63/89 60/64/90
f 61/65/198 80/84/112 58/62/199
f 60/64/90 59/63/89 86/90/175
f 86/90/175 61/65/91 60/64/90
f 58/62/199 54/57/81 53/56/80
f 54/57/81 58/62/199 80/84/112
f 54/57/81 80/84/112 4/4/16
f 4/4/16 80/84/112 11/11/15
f 62/66/92 64/68/94 65/69/95
f 66/70/98 30/30/44 65/69/96
f 65/69/178 30/30/50 7/33/49
f 65/69/178 7/33/49 6/140/177
f 67/71/99 20/20/27 24/24/35
f 70/74/102 117/145/200 71/75/103
f 73/77/105 102/113/151 71/75/103
f 71/75/103 117/145/200 72/76/104
f 71/75/103 66/70/98 63/67/93
f 63/67/93 66/70/98 64/68/97
f 75/79/107 27/27/42 66/70/98
f 102/113/151 74/78/106 71/75/103
f 81/85/116 83/87/115 76/80/201
f 76/80/108 79/83/111 81/85/113
f 79/83/111 10/10/14 11/11/15
f 81/85/116 84/88/117 82/86/114
f 81/85/113 80/84/112 61/65/198
f 84/88/121 61/65/120 86/90/122
f 83/87/115 77/81/126 76/80/201
f 85/89/118 88/92/129 82/86/114
f 16/16/22 78/82/110 77/81/109
f 78/82/110 9/9/12 10/10/14
f 91/146/130 77/147/202 89/148/203
f 91/95/130 97/102/138 92/96/131
f 89/149/203 97/102/138 91/95/130
f 93/97/132 92/96/131 25/25/133
f 14/99/135 91/95/130 93/97/132
f 97/102/204 98/112/204 95/100/204
f 96/101/137 95/100/136 99/109/205
f 99/109/143 117/145/200 70/74/102
f 103/114/152 99/109/205 95/100/136
f 117/145/200 99/109/143 103/114/206
f 103/114/206 72/76/104 117/145/200
f 96/101/137 92/96/131 97/102/138
f 92/96/131 96/101/137 26/26/145
f 69/73/207 96/101/144 70/74/102
f 69/73/208 26/26/145 96/101/137
f 26/26/38 69/73/101 24/24/35
f 100/110/146 107/120/159 101/111/147
f 103/114/152 98/112/142 72/76/148
f 104/115/156 107/120/159 100/110/146
f 113/150/168 107/120/159 104/115/156
f 104/151/156 106/152/155 113/153/168
f 98/112/142 104/115/153 100/110/149
f 105/154/154 98/107/142 88/105/141
f 108/121/160 107/120/159 109/123/162
f 107/120/159 113/150/168 109/123/162
f 109/126/162 111/155/164 40/156/209
f 36/37/54 101/111/147 34/35/52
f 36/37/54 74/78/106 102/113/151
f 51/54/210 45/48/67 110/124/163
f 110/124/163 112/130/167 51/54/210
f 111/125/164 45/48/67 44/47/66
f 111/125/164 44/47/66 40/43/209
f 109/126/162 113/157/168 110/158/163
f 112/130/211 90/94/211 116/134/211
f 85/89/118 116/134/172 90/94/128
f 90/94/128 106/129/212 88/92/129
f 106/129/212 105/159/213 88/92/129
f 114/132/169 51/54/210 112/130/167
f 112/130/167 116/134/174 115/133/170
f 115/133/170 59/63/89 57/61/171
f 52/55/78 56/60/85 49/52/73
f 37/38/56 7/59/84 32/39/57
f 16/142/194 77/147/202 91/160/130
